<svg xmlns="http://www.w3.org/2000/svg" xmlns:xlink="http://www.w3.org/1999/xlink" width="600" zoomAndPan="magnify" viewBox="0 0 450 74.999997" height="100" preserveAspectRatio="xMidYMid meet" version="1.0"><defs><g/><clipPath id="7928207df3"><path d="M 0.738281 7.5 L 42 7.5 L 42 72.007812 L 0.738281 72.007812 Z M 0.738281 7.5 " clip-rule="nonzero"/></clipPath></defs><path fill="#f7b702" d="M 14.570312 59.488281 C 14.554688 59.53125 14.542969 59.589844 14.542969 59.664062 C 14.554688 59.546875 14.570312 59.488281 14.570312 59.488281 Z M 14.570312 59.488281 " fill-opacity="1" fill-rule="evenodd"/><path fill="#dedcde" d="M 20.570312 56.996094 C 21.734375 58.035156 23.691406 58.109375 23.691406 58.109375 C 18.261719 59.664062 16.335938 54.210938 16.335938 54.210938 C 21.167969 57.597656 26.40625 54.210938 26.40625 54.210938 C 24.203125 57.230469 20.570312 56.996094 20.570312 56.996094 Z M 36.519531 33.539062 C 36.519531 33.539062 38.589844 35.855469 38.285156 38.140625 C 38.285156 38.140625 37.628906 35.929688 35.804688 34.609375 C 36.136719 36.691406 36.007812 38.316406 35.671875 39.578125 C 37.523438 41.851562 37.261719 44.855469 37.261719 44.855469 C 36.925781 43.023438 35.847656 41.515625 35.25 40.796875 C 34.445312 42.585938 33.265625 43.242188 33.265625 43.242188 C 35.308594 48.816406 31.71875 51.074219 31.71875 51.074219 C 31.671875 51.96875 31.46875 52.480469 31.308594 52.757812 C 31.570312 53.578125 31.453125 54.621094 30.855469 55.792969 C 30.855469 55.792969 31.6875 52.847656 29.398438 51.792969 C 27.835938 51.074219 25.734375 51.835938 23.777344 51.527344 C 21.371094 52.363281 19.5625 51.777344 18.890625 51.484375 C 16.847656 51.910156 14.613281 51.042969 12.980469 51.792969 C 10.675781 52.847656 11.507812 55.792969 11.507812 55.792969 C 11.507812 55.792969 9.886719 54.578125 10.179688 51.851562 C 10.179688 51.851562 6.339844 49.957031 8.078125 43.550781 C 8.078125 43.550781 7.273438 43.257812 7.011719 42.261719 C 7.011719 42.261719 5.554688 42.980469 5.117188 44.855469 C 5.117188 44.855469 4.050781 42.40625 5.84375 38.40625 C 5.84375 38.40625 4.429688 38.742188 3.335938 39.710938 C 3.335938 39.710938 2.75 37.65625 4.488281 34.902344 C 2.300781 37.277344 2.035156 40.179688 1.917969 41.558594 C 1.917969 41.558594 3.175781 40.0625 4.953125 39.34375 C 4.953125 39.34375 4.675781 39.8125 4.285156 40.621094 C 2.226562 45.222656 2.925781 51.21875 2.925781 51.21875 C 3.875 48.886719 6.152344 47.65625 6.152344 47.65625 C 6.0625 47.890625 4.34375 52.421875 5.246094 56.835938 C 5.4375 57.800781 5.917969 58.726562 6.664062 59.429688 C 7.171875 59.898438 7.582031 60.089844 7.582031 60.089844 C 8.046875 58.035156 9.917969 56.71875 9.917969 56.71875 C 9.886719 56.804688 9.859375 56.878906 9.84375 56.964844 C 9.507812 58.023438 8.382812 62.199219 10.5 65.175781 C 12.03125 66.832031 14.25 66.980469 14.25 66.980469 C 13.023438 63.476562 14.570312 59.488281 14.570312 59.488281 C 14.964844 70 21.179688 70.425781 21.179688 70.425781 C 21.179688 70.425781 27.398438 70 27.792969 59.488281 C 27.792969 59.488281 28.886719 64.3125 26.476562 68.136719 C 36.109375 66.585938 32.445312 56.71875 32.445312 56.71875 C 33.453125 58.929688 33.90625 60.765625 33.964844 62.257812 C 39.992188 57.273438 36.210938 47.65625 36.210938 47.65625 C 39.363281 50.546875 39.582031 53.007812 39.582031 53.007812 C 41.976562 46.96875 37.1875 39.226562 37.1875 39.226562 C 38.96875 39.960938 40.445312 41.558594 40.445312 41.558594 C 40.195312 38.492188 38.621094 35.632812 37.203125 33.640625 C 37 33.554688 36.765625 33.507812 36.519531 33.539062 Z M 36.519531 33.539062 " fill-opacity="1" fill-rule="evenodd"/><path fill="#fefefe" d="M 30.460938 35.941406 C 30.460938 35.941406 30.011719 36.308594 29.28125 36.734375 C 29.339844 37.175781 28.929688 37.644531 28.300781 37.847656 C 27.835938 38.007812 27.382812 37.980469 27.078125 37.804688 C 26.699219 37.949219 26.316406 38.070312 25.910156 38.15625 C 26.1875 39.167969 30.460938 39.375 30.460938 35.941406 Z M 30.460938 35.941406 " fill-opacity="1" fill-rule="evenodd"/><path fill="#bd2324" d="M 11.507812 22.585938 C 12.410156 22.585938 13.652344 22 14.046875 20.988281 C 14.175781 20.636719 14.191406 20.34375 14.117188 20.09375 C 13.886719 20.753906 13.417969 21.441406 12.46875 21.707031 C 12.46875 21.707031 13.066406 20.300781 12.398438 19.550781 C 11.082031 20.007812 9.871094 20.578125 8.820312 21.222656 C 9.449219 22.058594 10.414062 22.585938 11.507812 22.585938 Z M 11.507812 22.585938 " fill-opacity="1" fill-rule="evenodd"/><path fill="#e69d1b" d="M 7.042969 25.871094 L 4.632812 16.925781 C 4.371094 16.78125 4.109375 16.632812 3.847656 16.457031 L 6.371094 26.132812 C 6.558594 26.046875 6.792969 25.957031 7.042969 25.871094 Z M 7.042969 25.871094 " fill-opacity="1" fill-rule="evenodd"/><path fill="#e7bd88" d="M 31.585938 32.804688 C 34.429688 33.347656 34.285156 36.5 34.285156 36.5 C 33.074219 34.636719 31.105469 35.707031 31.105469 35.707031 C 30.945312 40.28125 26.886719 39.417969 26.886719 39.417969 C 28.070312 40.078125 29.292969 39.886719 29.292969 39.886719 C 25.675781 41.5 23.894531 38.347656 23.894531 38.347656 C 23.152344 38.316406 22.683594 38.949219 22.683594 38.949219 C 22.875 38.007812 23.5 37.773438 23.5 37.773438 C 22.523438 37.378906 22.4375 36.222656 22.4375 36.222656 C 25.980469 37.949219 28.1875 32.144531 31.585938 32.804688 Z M 8.078125 40.195312 C 10.222656 43.316406 11.710938 43.375 10.382812 45.707031 C 10.382812 45.707031 10.746094 44.679688 9.828125 43.773438 C 9.828125 43.773438 8.296875 46.601562 10.003906 48.933594 C 11.332031 46.042969 15.957031 46.617188 15.957031 46.617188 C 15.5625 46.265625 15.242188 45.515625 15.082031 45.121094 C 14.628906 44.988281 13.945312 44.914062 12.980469 45.179688 C 12.980469 45.179688 13.8125 44.019531 15.695312 43.960938 C 15.695312 43.960938 16.25 42.730469 18.261719 42.597656 C 18.261719 42.597656 20.597656 38.890625 18.480469 38.347656 C 18.480469 38.347656 16.6875 41.5 13.082031 39.886719 C 13.082031 39.886719 14.308594 40.078125 15.476562 39.417969 C 15.476562 39.417969 11.433594 40.28125 11.273438 35.707031 C 11.273438 35.707031 9.304688 34.636719 8.078125 36.5 C 8.078125 36.5 7.933594 33.347656 10.792969 32.804688 C 14.191406 32.144531 16.378906 37.949219 19.925781 36.222656 C 19.925781 36.222656 19.839844 37.378906 18.875 37.773438 C 18.875 37.773438 21.414062 38.449219 19.414062 43.273438 C 19.371094 43.375 19.328125 43.476562 19.285156 43.582031 C 19.285156 43.582031 19.808594 44.066406 19.855469 44.972656 C 19.855469 44.972656 19.488281 44.109375 18.847656 43.757812 C 18.847656 43.757812 17.109375 43.390625 16.703125 44.972656 C 16.292969 46.542969 18.730469 47.171875 19.152344 46.878906 C 19.152344 46.878906 19.648438 48.125 21.179688 48.140625 C 22.714844 48.125 23.222656 46.878906 23.222656 46.878906 C 23.648438 47.171875 26.070312 46.542969 25.660156 44.972656 C 25.253906 43.390625 23.53125 43.757812 23.53125 43.757812 C 22.875 44.109375 22.523438 44.972656 22.523438 44.972656 C 22.566406 44.066406 23.09375 43.582031 23.09375 43.582031 C 22.40625 42.144531 22.320312 39.59375 22.320312 39.59375 C 22.625 41.761719 23.734375 43.007812 23.734375 43.007812 C 25.484375 42.65625 26.449219 44.488281 26.449219 44.488281 C 28.464844 44.242188 29.398438 45.179688 29.398438 45.179688 C 27.515625 44.652344 26.667969 45.429688 26.667969 45.429688 C 26.289062 46.191406 25.835938 46.660156 25.398438 46.96875 C 31.132812 46.015625 31.980469 49.386719 31.980469 49.386719 C 34.285156 46.996094 32.550781 43.773438 32.550781 43.773438 C 31.628906 44.679688 31.980469 45.707031 31.980469 45.707031 C 30.667969 43.375 32.15625 43.316406 34.285156 40.195312 C 36.109375 37.539062 34.855469 32.996094 34.34375 31.441406 C 32.199219 30.8125 28.273438 30.152344 21.179688 30.152344 C 14.089844 30.152344 10.164062 30.8125 8.019531 31.441406 C 7.507812 32.996094 6.269531 37.539062 8.078125 40.195312 Z M 8.078125 40.195312 " fill-opacity="1" fill-rule="evenodd"/><path fill="#bd2324" d="M 27.441406 18.996094 C 27.441406 20.988281 28.972656 22.585938 30.871094 22.585938 C 30.871094 22.585938 30.886719 22.585938 30.898438 22.585938 C 31.382812 22.585938 31.746094 22.367188 31.964844 22.074219 C 30.738281 22.410156 29.628906 21.546875 29.628906 21.546875 C 30.929688 21.414062 31.382812 20.636719 31.542969 20.183594 C 31.511719 20.167969 31.484375 20.136719 31.441406 20.125 C 30.230469 19.59375 28.886719 19.140625 27.441406 18.804688 C 27.441406 18.878906 27.441406 18.9375 27.441406 18.996094 Z M 27.441406 18.996094 " fill-opacity="1" fill-rule="evenodd"/><path fill="#dedcde" d="M 11.578125 51.835938 C 12.398438 50.867188 13.929688 50.441406 15.78125 50.78125 C 18.160156 51.21875 19.75 50.515625 20.554688 49.972656 L 20.554688 48.609375 C 20.261719 48.566406 19.910156 48.433594 19.53125 48.183594 C 19.53125 48.183594 10.9375 45.78125 11.519531 51.117188 C 11.519531 51.117188 11.492188 51.453125 11.578125 51.835938 Z M 11.578125 51.835938 " fill-opacity="1" fill-rule="evenodd"/><path fill="#e69d1b" d="M 35.234375 17.984375 C 35.308594 18.304688 35.335938 18.65625 35.335938 18.996094 C 35.335938 21.53125 33.335938 23.597656 30.871094 23.597656 C 28.390625 23.597656 26.390625 21.53125 26.390625 18.996094 C 26.390625 17.894531 26.769531 16.855469 27.457031 16.019531 C 24.464844 14.539062 22.144531 11.179688 21.179688 9.625 L 21.179688 21.707031 L 19.183594 13.761719 C 19.183594 13.761719 17.445312 15.285156 14.921875 16.019531 C 15.605469 16.855469 15.988281 17.894531 15.988281 18.996094 C 15.988281 21.53125 13.972656 23.597656 11.507812 23.597656 C 9.039062 23.597656 7.027344 21.53125 7.027344 18.996094 C 7.027344 18.65625 7.070312 18.304688 7.144531 17.984375 C 6.71875 17.851562 6.136719 17.644531 5.464844 17.351562 L 7.710938 25.652344 C 10.019531 24.960938 14.074219 24.316406 21.179688 24.316406 C 31.671875 24.316406 35.511719 25.722656 36.882812 26.589844 L 39.566406 15.695312 C 37.960938 17.03125 36.152344 17.703125 35.234375 17.984375 Z M 35.234375 17.984375 " fill-opacity="1" fill-rule="evenodd"/><path fill="#fefefe" d="M 11.914062 35.941406 C 11.914062 39.375 16.175781 39.167969 16.453125 38.15625 C 16.058594 38.070312 15.664062 37.949219 15.300781 37.804688 C 14.996094 37.980469 14.527344 38.007812 14.074219 37.847656 C 13.449219 37.644531 13.039062 37.175781 13.082031 36.734375 C 12.351562 36.308594 11.914062 35.941406 11.914062 35.941406 Z M 11.914062 35.941406 " fill-opacity="1" fill-rule="evenodd"/><path fill="#e69d1b" d="M 8.3125 26.425781 C 7.976562 26.515625 7.667969 26.601562 7.40625 26.707031 L 7.40625 30.695312 C 7.667969 30.605469 7.976562 30.519531 8.3125 30.429688 Z M 8.3125 26.425781 " fill-opacity="1" fill-rule="evenodd"/><path fill="#dedcde" d="M 22.832031 48.183594 C 22.464844 48.433594 22.101562 48.566406 21.808594 48.609375 L 21.808594 49.972656 C 22.625 50.515625 24.203125 51.21875 26.582031 50.78125 C 28.433594 50.441406 29.964844 50.867188 30.796875 51.835938 C 30.871094 51.453125 30.839844 51.117188 30.839844 51.117188 C 31.441406 45.78125 22.832031 48.183594 22.832031 48.183594 Z M 22.832031 48.183594 " fill-opacity="1" fill-rule="evenodd"/><path fill="#e69d1b" d="M 36.722656 31.425781 L 36.722656 27.601562 C 36.269531 27.191406 33.46875 25.210938 21.179688 25.210938 C 15.066406 25.210938 11.300781 25.695312 9.011719 26.238281 L 9.011719 30.253906 C 11.449219 29.710938 15.257812 29.257812 21.179688 29.257812 C 31.28125 29.257812 35.21875 30.5625 36.722656 31.425781 Z M 36.722656 31.425781 " fill-opacity="1" fill-rule="evenodd"/><path fill="#1c1b17" d="M 27.078125 37.804688 C 27.382812 37.980469 27.835938 38.007812 28.300781 37.847656 C 28.929688 37.644531 29.339844 37.175781 29.28125 36.734375 C 30.011719 36.308594 30.460938 35.941406 30.460938 35.941406 C 30.460938 39.375 26.1875 39.167969 25.910156 38.15625 C 26.316406 38.070312 26.699219 37.949219 27.078125 37.804688 Z M 23.5 37.773438 C 23.5 37.773438 22.875 38.007812 22.683594 38.949219 C 22.683594 38.949219 23.152344 38.316406 23.894531 38.347656 C 23.894531 38.347656 25.675781 41.5 29.292969 39.886719 C 29.292969 39.886719 28.070312 40.078125 26.886719 39.417969 C 26.886719 39.417969 30.945312 40.28125 31.105469 35.707031 C 31.105469 35.707031 33.074219 34.636719 34.285156 36.5 C 34.285156 36.5 34.429688 33.347656 31.585938 32.804688 C 28.1875 32.144531 25.980469 37.949219 22.4375 36.222656 C 22.4375 36.222656 22.523438 37.378906 23.5 37.773438 Z M 23.5 37.773438 " fill-opacity="1" fill-rule="evenodd"/><g clip-path="url(#7928207df3)"><path fill="#1c1b17" d="M 36.882812 26.589844 C 35.511719 25.722656 31.671875 24.316406 21.179688 24.316406 C 14.074219 24.316406 10.019531 24.960938 7.710938 25.652344 L 5.464844 17.351562 C 6.136719 17.644531 6.71875 17.851562 7.144531 17.984375 C 7.070312 18.304688 7.027344 18.65625 7.027344 18.996094 C 7.027344 21.53125 9.039062 23.597656 11.507812 23.597656 C 13.972656 23.597656 15.988281 21.53125 15.988281 18.996094 C 15.988281 17.894531 15.605469 16.855469 14.921875 16.019531 C 17.445312 15.285156 19.183594 13.761719 19.183594 13.761719 L 21.179688 21.707031 L 21.179688 9.625 C 22.144531 11.179688 24.464844 14.539062 27.457031 16.019531 C 26.769531 16.855469 26.390625 17.894531 26.390625 18.996094 C 26.390625 21.53125 28.390625 23.597656 30.871094 23.597656 C 33.335938 23.597656 35.335938 21.53125 35.335938 18.996094 C 35.335938 18.65625 35.308594 18.304688 35.234375 17.984375 C 36.152344 17.703125 37.960938 17.03125 39.566406 15.695312 Z M 14.074219 37.847656 C 14.527344 38.007812 14.996094 37.980469 15.300781 37.804688 C 15.664062 37.949219 16.058594 38.070312 16.453125 38.15625 C 16.175781 39.167969 11.914062 39.375 11.914062 35.941406 C 11.914062 35.941406 12.351562 36.308594 13.082031 36.734375 C 13.039062 37.175781 13.449219 37.644531 14.074219 37.847656 Z M 19.53125 48.183594 C 19.910156 48.433594 20.261719 48.566406 20.554688 48.609375 L 20.554688 49.972656 C 19.75 50.515625 18.160156 51.21875 15.78125 50.78125 C 13.929688 50.441406 12.398438 50.867188 11.578125 51.835938 C 11.492188 51.453125 11.519531 51.117188 11.519531 51.117188 C 10.9375 45.78125 19.53125 48.183594 19.53125 48.183594 Z M 30.796875 51.835938 C 29.964844 50.867188 28.433594 50.441406 26.582031 50.78125 C 24.203125 51.21875 22.625 50.515625 21.808594 49.972656 L 21.808594 48.609375 C 22.101562 48.566406 22.464844 48.433594 22.832031 48.183594 C 22.832031 48.183594 31.441406 45.78125 30.839844 51.117188 C 30.839844 51.117188 30.871094 51.453125 30.796875 51.835938 Z M 9.011719 30.253906 L 9.011719 26.238281 C 11.300781 25.695312 15.066406 25.210938 21.179688 25.210938 C 33.46875 25.210938 36.269531 27.191406 36.722656 27.601562 L 36.722656 31.425781 C 35.21875 30.5625 31.28125 29.257812 21.179688 29.257812 C 15.257812 29.257812 11.449219 29.710938 9.011719 30.253906 Z M 7.40625 30.695312 L 7.40625 26.707031 C 7.667969 26.601562 7.976562 26.515625 8.3125 26.425781 L 8.3125 30.429688 C 7.976562 30.519531 7.667969 30.605469 7.40625 30.695312 Z M 8.019531 31.441406 C 10.164062 30.8125 14.089844 30.152344 21.179688 30.152344 C 28.273438 30.152344 32.199219 30.8125 34.34375 31.441406 C 34.855469 32.996094 36.109375 37.539062 34.285156 40.195312 C 32.15625 43.316406 30.667969 43.375 31.980469 45.707031 C 31.980469 45.707031 31.628906 44.679688 32.550781 43.773438 C 32.550781 43.773438 34.285156 46.996094 31.980469 49.386719 C 31.980469 49.386719 31.132812 46.015625 25.398438 46.96875 C 25.835938 46.660156 26.289062 46.191406 26.667969 45.429688 C 26.667969 45.429688 27.515625 44.652344 29.398438 45.179688 C 29.398438 45.179688 28.464844 44.242188 26.449219 44.488281 C 26.449219 44.488281 25.484375 42.65625 23.734375 43.007812 C 23.734375 43.007812 22.625 41.761719 22.320312 39.59375 C 22.320312 39.59375 22.40625 42.144531 23.09375 43.582031 C 23.09375 43.582031 22.566406 44.066406 22.523438 44.972656 C 22.523438 44.972656 22.875 44.109375 23.53125 43.757812 C 23.53125 43.757812 25.253906 43.390625 25.660156 44.972656 C 26.070312 46.542969 23.648438 47.171875 23.222656 46.878906 C 23.222656 46.878906 22.714844 48.125 21.179688 48.140625 C 19.648438 48.125 19.152344 46.878906 19.152344 46.878906 C 18.730469 47.171875 16.292969 46.542969 16.703125 44.972656 C 17.109375 43.390625 18.847656 43.757812 18.847656 43.757812 C 19.488281 44.109375 19.855469 44.972656 19.855469 44.972656 C 19.808594 44.066406 19.285156 43.582031 19.285156 43.582031 C 19.328125 43.476562 19.371094 43.375 19.414062 43.273438 C 21.414062 38.449219 18.875 37.773438 18.875 37.773438 C 19.839844 37.378906 19.925781 36.222656 19.925781 36.222656 C 16.378906 37.949219 14.191406 32.144531 10.792969 32.804688 C 7.933594 33.347656 8.078125 36.5 8.078125 36.5 C 9.304688 34.636719 11.273438 35.707031 11.273438 35.707031 C 11.433594 40.28125 15.476562 39.417969 15.476562 39.417969 C 14.308594 40.078125 13.082031 39.886719 13.082031 39.886719 C 16.6875 41.5 18.480469 38.347656 18.480469 38.347656 C 20.597656 38.890625 18.261719 42.597656 18.261719 42.597656 C 16.25 42.730469 15.695312 43.960938 15.695312 43.960938 C 13.8125 44.019531 12.980469 45.179688 12.980469 45.179688 C 13.945312 44.914062 14.628906 44.988281 15.082031 45.121094 C 15.242188 45.515625 15.5625 46.265625 15.957031 46.617188 C 15.957031 46.617188 11.332031 46.042969 10.003906 48.933594 C 8.296875 46.601562 9.828125 43.773438 9.828125 43.773438 C 10.746094 44.679688 10.382812 45.707031 10.382812 45.707031 C 11.710938 43.375 10.222656 43.316406 8.078125 40.195312 C 6.269531 37.539062 7.507812 32.996094 8.019531 31.441406 Z M 40.445312 41.558594 C 40.445312 41.558594 38.96875 39.960938 37.1875 39.226562 C 37.1875 39.226562 41.976562 46.96875 39.582031 53.007812 C 39.582031 53.007812 39.363281 50.546875 36.210938 47.65625 C 36.210938 47.65625 39.992188 57.273438 33.964844 62.257812 C 33.90625 60.765625 33.453125 58.929688 32.445312 56.71875 C 32.445312 56.71875 36.109375 66.585938 26.476562 68.136719 C 28.886719 64.3125 27.792969 59.488281 27.792969 59.488281 C 27.398438 70 21.179688 70.425781 21.179688 70.425781 C 21.179688 70.425781 14.964844 70 14.570312 59.488281 C 14.570312 59.488281 14.554688 59.546875 14.542969 59.664062 C 14.542969 59.589844 14.554688 59.53125 14.570312 59.488281 C 14.570312 59.488281 13.023438 63.476562 14.25 66.980469 C 14.25 66.980469 12.03125 66.832031 10.5 65.175781 C 8.382812 62.199219 9.507812 58.023438 9.84375 56.964844 C 9.859375 56.878906 9.886719 56.804688 9.917969 56.71875 C 9.917969 56.71875 8.046875 58.035156 7.582031 60.089844 C 7.582031 60.089844 7.171875 59.898438 6.664062 59.429688 C 5.917969 58.726562 5.4375 57.800781 5.246094 56.835938 C 4.34375 52.421875 6.0625 47.890625 6.152344 47.65625 C 6.152344 47.65625 3.875 48.886719 2.925781 51.21875 C 2.925781 51.21875 2.226562 45.222656 4.285156 40.621094 C 4.675781 39.8125 4.953125 39.34375 4.953125 39.34375 C 3.175781 40.0625 1.917969 41.558594 1.917969 41.558594 C 2.035156 40.179688 2.300781 37.277344 4.488281 34.902344 C 2.75 37.65625 3.335938 39.710938 3.335938 39.710938 C 4.429688 38.742188 5.84375 38.40625 5.84375 38.40625 C 4.050781 42.40625 5.117188 44.855469 5.117188 44.855469 C 5.554688 42.980469 7.011719 42.261719 7.011719 42.261719 C 7.273438 43.257812 8.078125 43.550781 8.078125 43.550781 C 6.339844 49.957031 10.179688 51.851562 10.179688 51.851562 C 9.886719 54.578125 11.507812 55.792969 11.507812 55.792969 C 11.507812 55.792969 10.675781 52.847656 12.980469 51.792969 C 14.613281 51.042969 16.847656 51.910156 18.890625 51.484375 C 19.5625 51.777344 21.371094 52.363281 23.777344 51.527344 C 25.734375 51.835938 27.835938 51.074219 29.398438 51.792969 C 31.6875 52.847656 30.855469 55.792969 30.855469 55.792969 C 31.453125 54.621094 31.570312 53.578125 31.308594 52.757812 C 31.46875 52.480469 31.671875 51.96875 31.71875 51.074219 C 31.71875 51.074219 35.308594 48.816406 33.265625 43.242188 C 33.265625 43.242188 34.445312 42.585938 35.25 40.796875 C 35.847656 41.515625 36.925781 43.023438 37.261719 44.855469 C 37.261719 44.855469 37.523438 41.851562 35.671875 39.578125 C 36.007812 38.316406 36.136719 36.691406 35.804688 34.609375 C 37.628906 35.929688 38.285156 38.140625 38.285156 38.140625 C 38.589844 35.855469 36.519531 33.539062 36.519531 33.539062 C 36.765625 33.507812 37 33.554688 37.203125 33.640625 C 38.621094 35.632812 40.195312 38.492188 40.445312 41.558594 Z M 3.847656 16.457031 C 4.109375 16.632812 4.371094 16.78125 4.632812 16.925781 L 7.042969 25.871094 C 6.792969 25.957031 6.558594 26.046875 6.371094 26.132812 Z M 12.398438 19.550781 C 13.066406 20.300781 12.46875 21.707031 12.46875 21.707031 C 13.417969 21.441406 13.886719 20.753906 14.117188 20.09375 C 14.191406 20.34375 14.175781 20.636719 14.046875 20.988281 C 13.652344 22 12.410156 22.585938 11.507812 22.585938 C 10.414062 22.585938 9.449219 22.058594 8.820312 21.222656 C 9.871094 20.578125 11.082031 20.007812 12.398438 19.550781 Z M 31.441406 20.125 C 31.484375 20.136719 31.511719 20.167969 31.542969 20.183594 C 31.382812 20.636719 30.929688 21.414062 29.628906 21.546875 C 29.628906 21.546875 30.738281 22.410156 31.964844 22.074219 C 31.746094 22.367188 31.382812 22.585938 30.898438 22.585938 C 30.886719 22.585938 30.871094 22.585938 30.871094 22.585938 C 28.972656 22.585938 27.441406 20.988281 27.441406 18.996094 C 27.441406 18.9375 27.441406 18.878906 27.441406 18.804688 C 28.886719 19.140625 30.230469 19.59375 31.441406 20.125 Z M 37.65625 32.378906 L 37.65625 27.644531 L 41.609375 11.78125 L 40.109375 13.6875 C 38.152344 16.164062 35.058594 17 34.460938 17.148438 L 33.90625 17.277344 L 34.082031 17.792969 C 34.210938 18.171875 34.285156 18.582031 34.285156 18.996094 C 34.285156 19.476562 34.199219 19.933594 34.039062 20.34375 C 34.023438 20.328125 34.023438 20.328125 34.007812 20.328125 C 32.15625 19.214844 29.996094 18.363281 27.632812 17.820312 C 27.835938 17.207031 28.199219 16.648438 28.683594 16.222656 L 29.308594 15.695312 L 28.519531 15.402344 C 24.699219 13.9375 21.675781 8.421875 21.648438 8.363281 L 21.179688 7.5 L 20.714844 8.363281 C 20.683594 8.421875 17.679688 13.921875 13.839844 15.402344 L 13.066406 15.695312 L 13.679688 16.222656 C 14.175781 16.648438 14.542969 17.207031 14.746094 17.820312 C 12.382812 18.363281 10.207031 19.214844 8.371094 20.328125 C 8.355469 20.328125 8.339844 20.328125 8.324219 20.34375 C 8.164062 19.933594 8.078125 19.476562 8.078125 18.996094 C 8.078125 18.582031 8.152344 18.171875 8.28125 17.792969 L 8.457031 17.277344 L 7.917969 17.148438 C 7.320312 17 4.226562 16.164062 2.253906 13.6875 L 0.753906 11.78125 L 4.707031 27.644531 L 4.707031 32.378906 C 4.707031 32.554688 4.824219 32.730469 4.984375 32.804688 C 0.125 37.394531 0.972656 44.195312 0.972656 44.195312 C 1.613281 42.496094 3.773438 40.972656 3.773438 40.972656 C -2.195312 48.769531 3.21875 55.792969 3.21875 55.792969 C 3.160156 53.992188 3.859375 52.261719 4.371094 51.234375 C 1.730469 58.652344 7.042969 62.933594 8.5 63.945312 C 9.347656 68.738281 14.964844 69.238281 16.761719 69.28125 C 17.78125 70.425781 19.210938 71.394531 21.179688 72.007812 C 23.167969 71.394531 24.582031 70.425781 25.601562 69.28125 C 27.398438 69.238281 33.015625 68.738281 33.875 63.945312 C 35.320312 62.933594 40.632812 58.652344 38.007812 51.234375 C 38.515625 52.261719 39.203125 53.992188 39.160156 55.792969 C 39.160156 55.792969 44.558594 48.769531 38.589844 40.972656 C 38.589844 40.972656 40.75 42.496094 41.40625 44.195312 C 41.40625 44.195312 42.253906 37.394531 37.378906 32.804688 C 37.554688 32.730469 37.65625 32.554688 37.65625 32.378906 Z M 37.65625 32.378906 " fill-opacity="1" fill-rule="evenodd"/></g><path fill="#1c1b17" d="M 16.335938 54.210938 C 16.335938 54.210938 18.261719 59.664062 23.691406 58.109375 C 23.691406 58.109375 21.734375 58.035156 20.570312 56.996094 C 20.570312 56.996094 24.203125 57.230469 26.40625 54.210938 C 26.40625 54.210938 21.167969 57.597656 16.335938 54.210938 Z M 16.335938 54.210938 " fill-opacity="1" fill-rule="evenodd"/><path fill="#f7b702" d="M 21.664062 23.394531 L 21.664062 11.574219 C 21.664062 11.574219 23.894531 14.949219 26.40625 16.207031 C 26.40625 16.207031 24.363281 19.902344 27.136719 22.585938 C 29.894531 25.285156 33.453125 23.394531 33.453125 23.394531 C 33.453125 23.394531 36.125 22.324219 35.933594 18.335938 C 35.933594 18.335938 37.890625 17.71875 38.664062 16.972656 L 36.402344 25.722656 C 36.402344 25.722656 29.644531 23.890625 21.664062 23.992188 Z M 21.664062 23.394531 " fill-opacity="1" fill-rule="evenodd"/><path fill="#f7b702" d="M 13.8125 23.570312 C 13.8125 23.570312 16.292969 22.761719 16.703125 20.050781 C 16.703125 20.050781 18.453125 20.371094 18.832031 19.054688 L 19.941406 20.035156 L 20.613281 23.746094 C 20.613281 23.746094 16.863281 23.4375 11.609375 24.550781 C 11.609375 24.550781 13.214844 24.066406 13.8125 23.570312 Z M 13.8125 23.570312 " fill-opacity="1" fill-rule="evenodd"/><path fill="#f7b702" d="M 13.957031 25.886719 C 13.726562 25.898438 13.492188 25.929688 13.257812 25.957031 L 13.257812 29.214844 C 13.492188 29.199219 13.726562 29.167969 13.957031 29.15625 Z M 13.957031 25.886719 " fill-opacity="1" fill-rule="evenodd"/><path fill="#f7b702" d="M 33.292969 26.617188 C 30.433594 25.945312 26.347656 25.589844 21.179688 25.589844 C 18.816406 25.589844 16.6875 25.664062 14.789062 25.8125 L 14.789062 29.082031 C 16.703125 28.949219 18.832031 28.875 21.179688 28.875 C 28.171875 28.875 32.300781 29.492188 34.738281 30.210938 L 34.738281 27.027344 C 34.34375 26.898438 33.863281 26.765625 33.292969 26.617188 Z M 33.292969 26.617188 " fill-opacity="1" fill-rule="evenodd"/><path fill="#fefefe" d="M 33.496094 26.898438 L 33.496094 29.742188 C 33.714844 29.800781 33.949219 29.859375 34.167969 29.929688 L 34.167969 27.117188 C 33.949219 27.042969 33.730469 26.96875 33.496094 26.898438 Z M 33.496094 26.898438 " fill-opacity="1" fill-rule="evenodd"/><path fill="#fefefe" d="M 30.449219 26.222656 L 30.449219 29.140625 C 31.234375 29.242188 31.980469 29.390625 32.652344 29.535156 L 32.652344 26.675781 C 31.980469 26.5 31.25 26.355469 30.449219 26.222656 Z M 30.449219 26.222656 " fill-opacity="1" fill-rule="evenodd"/><path fill="#f7b702" d="M 35.570312 27.351562 L 35.570312 30.472656 C 35.847656 30.578125 36.09375 30.679688 36.3125 30.78125 L 36.3125 27.777344 C 36.183594 27.671875 35.949219 27.527344 35.570312 27.351562 Z M 35.570312 27.351562 " fill-opacity="1" fill-rule="evenodd"/><path fill="#fefefe" d="M 36.3125 18.554688 C 36.3125 18.554688 37.40625 18.378906 38.226562 17.75 L 36.210938 25.210938 L 37.144531 18.804688 C 37.144531 18.804688 36.589844 18.820312 36.3125 18.554688 Z M 36.3125 18.554688 " fill-opacity="1" fill-rule="evenodd"/><path fill="#fefefe" d="M 22.171875 22.117188 L 22.171875 12.96875 C 22.171875 12.96875 23.648438 15.503906 25.660156 16.253906 C 25.660156 16.253906 24.214844 16.28125 23.0625 15.667969 Z M 22.171875 22.117188 " fill-opacity="1" fill-rule="evenodd"/><path fill="#f8d09a" d="M 9.800781 37.058594 C 9.800781 37.058594 10.25 40.707031 14.175781 41.101562 C 14.175781 41.101562 16.089844 41.234375 17.066406 40.621094 C 17.066406 40.621094 17.226562 41.9375 16.65625 42.304688 C 16.65625 42.304688 14.789062 42.554688 14.570312 43.214844 C 14.570312 43.214844 12.6875 42.980469 12.25 44.125 C 12.25 44.125 11.214844 43.140625 11.214844 42.277344 C 11.214844 42.277344 9.039062 40.414062 8.792969 38.390625 C 8.792969 38.390625 9.203125 37.234375 9.800781 37.058594 Z M 9.800781 37.058594 " fill-opacity="1" fill-rule="evenodd"/><path fill="#f8d09a" d="M 15.007812 32.746094 C 15.007812 32.746094 17.066406 36.25 20.042969 35.253906 C 20.042969 35.253906 21.238281 36.089844 20.800781 37.585938 L 21.179688 37.996094 L 21.179688 45.089844 C 21.179688 45.089844 20.773438 45.457031 20.261719 45.414062 C 20.261719 45.414062 20.378906 46.617188 19.691406 46.863281 C 19.691406 46.863281 21.152344 48.652344 22.773438 47.011719 C 22.773438 47.011719 23.035156 46.527344 22.917969 46.148438 C 22.917969 46.148438 23.734375 46.910156 24.828125 46.265625 C 25.925781 45.617188 24.917969 44.371094 24.917969 44.371094 C 24.917969 44.371094 24.480469 44.035156 23.824219 44.125 C 23.824219 44.125 22.890625 44.371094 22.523438 45.398438 C 22.523438 45.398438 22.042969 44.652344 22.597656 43.582031 C 22.597656 43.582031 21.472656 40.253906 22.128906 37.714844 C 22.128906 37.714844 21.429688 36.367188 21.984375 35.574219 C 21.984375 35.574219 24.421875 36.5 25.910156 34.800781 C 27.414062 33.082031 29.367188 31.867188 31.046875 31.894531 L 31.046875 31.425781 C 31.046875 31.425781 23.824219 30.210938 14.789062 31.074219 L 14.789062 32.46875 Z M 15.007812 32.746094 " fill-opacity="1" fill-rule="evenodd"/><path fill="#f8d09a" d="M 32.417969 36.542969 C 32.417969 36.542969 30.769531 43.449219 24.113281 39.753906 C 24.113281 39.753906 24.171875 41.675781 24.597656 42.171875 C 24.597656 42.171875 26.433594 42.421875 26.945312 43.476562 C 26.945312 43.476562 28.960938 43.417969 30.300781 45.691406 C 30.300781 45.691406 28.257812 45.296875 27.136719 45.691406 C 27.136719 45.691406 27.019531 46.234375 26.8125 46.351562 C 26.8125 46.351562 30.871094 46.101562 32.097656 48.023438 C 32.097656 48.023438 33.015625 46.46875 32.578125 45.265625 C 32.578125 45.265625 32.34375 46.265625 31.964844 46.425781 C 31.964844 46.425781 30.300781 44.664062 31.367188 42.804688 C 32.445312 40.941406 34.648438 39.796875 33.90625 37.511719 Z M 32.417969 36.542969 " fill-opacity="1" fill-rule="evenodd"/><path fill="#fafbfb" d="M 37.628906 41.515625 C 37.628906 41.515625 39.976562 46.207031 39.566406 50.851562 C 39.566406 50.851562 37.597656 46.894531 35.25 45.148438 C 35.25 45.148438 37.597656 45.664062 38.457031 47.054688 C 38.457031 47.054688 38.414062 43.890625 37.628906 41.515625 Z M 37.628906 41.515625 " fill-opacity="1" fill-rule="evenodd"/><path fill="#fafbfb" d="M 34.898438 47.070312 C 34.898438 47.070312 36.722656 51.894531 36.53125 57.070312 C 36.53125 57.070312 35.917969 54.285156 35.25 53.273438 C 35.25 53.273438 35.890625 56.4375 35.714844 58.753906 C 35.714844 58.753906 35.117188 60.292969 34.578125 60.660156 C 34.578125 60.660156 33.964844 56.570312 32.5625 54.839844 C 32.5625 54.839844 33.570312 52.964844 33.03125 51.320312 C 33.03125 51.320312 34.898438 49.269531 34.898438 47.070312 Z M 34.898438 47.070312 " fill-opacity="1" fill-rule="evenodd"/><path fill="#fafbfb" d="M 25.121094 56.9375 C 25.121094 56.9375 27.660156 56.011719 28.230469 54.210938 C 28.230469 54.210938 29.382812 54.253906 29.675781 53.875 C 29.675781 53.875 30.300781 55.53125 30.011719 57.976562 C 30.011719 57.976562 31.105469 57.613281 31.441406 56.894531 C 31.441406 56.894531 33.148438 63.726562 28.289062 66.65625 C 28.289062 66.65625 30.082031 60.398438 27.527344 57.773438 C 27.527344 57.773438 26.085938 58.125 25.121094 56.9375 Z M 25.121094 56.9375 " fill-opacity="1" fill-rule="evenodd"/><path fill="#fafbfb" d="M 25.601562 48.023438 C 25.601562 48.023438 27.105469 47.875 28.289062 48.214844 L 28.433594 49.5625 L 28.796875 48.347656 C 28.796875 48.347656 29.964844 48.757812 30.359375 49.839844 L 30.242188 51.015625 C 30.242188 51.015625 29.6875 50.382812 28.433594 50.28125 C 27.164062 50.179688 26.332031 50.617188 25.601562 50.339844 Z M 25.601562 48.023438 " fill-opacity="1" fill-rule="evenodd"/><path fill="#fafbfb" d="M 18.859375 54.210938 C 18.859375 54.210938 22.742188 54.636719 24.113281 52.992188 C 24.113281 52.992188 24.757812 53.917969 25.761719 53.625 C 25.761719 53.625 22.449219 56.101562 18.859375 54.210938 Z M 18.859375 54.210938 " fill-opacity="1" fill-rule="evenodd"/><path fill="#fafbfb" d="M 27.03125 58.710938 C 26.84375 60.367188 25.835938 62.480469 25.835938 62.480469 C 26.144531 60.824219 25.953125 58.917969 25.953125 58.917969 C 25.691406 59.003906 25.019531 59.078125 25.019531 59.078125 C 24.742188 60.03125 23.339844 60.542969 23.339844 60.542969 L 22.449219 64.429688 L 22.394531 60.441406 C 23.398438 60.148438 23.75 59.238281 23.75 59.238281 C 22.933594 59.679688 21.371094 59.664062 21.371094 59.664062 C 21.371094 59.664062 20.058594 59.679688 19.269531 59.328125 C 19.269531 59.328125 19.855469 60.292969 20.859375 60.574219 L 20.613281 66.1875 C 20.613281 66.1875 18.511719 64.824219 18.03125 62.523438 C 18.03125 62.523438 17.796875 67.757812 21.371094 69.488281 C 22.4375 69.429688 23.574219 68.476562 23.574219 68.476562 C 24.609375 67.273438 25.121094 62.480469 25.121094 62.480469 C 25.542969 63.929688 25.121094 66.246094 25.121094 66.246094 C 27.078125 63.476562 27.03125 58.710938 27.03125 58.710938 Z M 27.03125 58.710938 " fill-opacity="1" fill-rule="evenodd"/><g fill="#000000" fill-opacity="1"><g transform="translate(48.220471, 48.615903)"><g><path d="M 8.84375 -20.5 C 8.914062 -20.519531 9.070312 -20.535156 9.3125 -20.546875 C 9.5625 -20.554688 9.875 -20.550781 10.25 -20.53125 C 10.894531 -20.507812 11.503906 -20.46875 12.078125 -20.40625 C 12.660156 -20.351562 13.222656 -20.25 13.765625 -20.09375 C 14.304688 -19.945312 14.835938 -19.738281 15.359375 -19.46875 C 15.878906 -19.195312 16.378906 -18.835938 16.859375 -18.390625 C 17.640625 -17.671875 18.203125 -16.8125 18.546875 -15.8125 C 18.585938 -15.707031 18.632812 -15.570312 18.6875 -15.40625 C 18.738281 -15.238281 18.78125 -15.046875 18.8125 -14.828125 C 18.851562 -14.597656 18.890625 -14.410156 18.921875 -14.265625 C 18.953125 -14.128906 18.96875 -14.035156 18.96875 -13.984375 L 18.96875 -13.828125 L 13.078125 -13.828125 L 13.015625 -14.15625 C 12.953125 -14.519531 12.8125 -14.832031 12.59375 -15.09375 C 12.375 -15.351562 12.117188 -15.570312 11.828125 -15.75 C 11.535156 -15.925781 11.21875 -16.054688 10.875 -16.140625 C 10.539062 -16.222656 10.203125 -16.265625 9.859375 -16.265625 C 8.617188 -16.265625 7.976562 -15.671875 7.9375 -14.484375 C 7.9375 -14.023438 8.175781 -13.625 8.65625 -13.28125 C 9.132812 -12.945312 10 -12.597656 11.25 -12.234375 C 12.226562 -11.910156 13.0625 -11.628906 13.75 -11.390625 C 14.445312 -11.148438 15.023438 -10.921875 15.484375 -10.703125 C 15.921875 -10.484375 16.3125 -10.257812 16.65625 -10.03125 C 17 -9.800781 17.300781 -9.5625 17.5625 -9.3125 C 18.21875 -8.675781 18.71875 -7.925781 19.0625 -7.0625 C 19.414062 -6.195312 19.578125 -5.304688 19.546875 -4.390625 C 19.460938 -3.085938 19.128906 -1.992188 18.546875 -1.109375 C 17.960938 -0.234375 17.21875 0.472656 16.3125 1.015625 C 15.414062 1.554688 14.410156 1.941406 13.296875 2.171875 C 12.191406 2.410156 11.066406 2.539062 9.921875 2.5625 C 8.898438 2.5625 7.9375 2.445312 7.03125 2.21875 C 6.132812 2 5.316406 1.660156 4.578125 1.203125 C 3.847656 0.742188 3.21875 0.144531 2.6875 -0.59375 C 2.15625 -1.34375 1.75 -2.238281 1.46875 -3.28125 C 1.269531 -3.9375 1.171875 -4.425781 1.171875 -4.75 C 1.171875 -4.832031 2.171875 -4.851562 4.171875 -4.8125 L 7.21875 -4.8125 L 7.25 -4.390625 C 7.363281 -3.804688 7.613281 -3.289062 8 -2.84375 C 8.394531 -2.394531 8.851562 -2.085938 9.375 -1.921875 C 9.519531 -1.878906 9.679688 -1.847656 9.859375 -1.828125 C 10.035156 -1.804688 10.238281 -1.796875 10.46875 -1.796875 C 10.96875 -1.796875 11.445312 -1.882812 11.90625 -2.0625 C 12.363281 -2.25 12.691406 -2.601562 12.890625 -3.125 C 13.097656 -3.539062 13.117188 -4.019531 12.953125 -4.5625 C 12.796875 -5.144531 12.554688 -5.554688 12.234375 -5.796875 C 11.859375 -6.097656 10.828125 -6.476562 9.140625 -6.9375 C 8.316406 -7.164062 7.585938 -7.390625 6.953125 -7.609375 C 6.328125 -7.828125 5.785156 -8.046875 5.328125 -8.265625 C 4.003906 -8.910156 3.066406 -9.695312 2.515625 -10.625 C 1.960938 -11.5625 1.71875 -12.789062 1.78125 -14.3125 C 1.8125 -15.269531 2 -16.101562 2.34375 -16.8125 C 2.6875 -17.53125 3.140625 -18.140625 3.703125 -18.640625 C 4.273438 -19.140625 4.941406 -19.539062 5.703125 -19.84375 C 6.472656 -20.144531 7.296875 -20.34375 8.171875 -20.4375 C 8.296875 -20.4375 8.425781 -20.445312 8.5625 -20.46875 C 8.707031 -20.488281 8.800781 -20.5 8.84375 -20.5 Z M 8.84375 -20.5 "/></g></g></g><g fill="#000000" fill-opacity="1"><g transform="translate(68.867583, 48.615903)"><g><path d="M 6.078125 -20.234375 C 6.015625 -20.253906 6.03125 -20.273438 6.125 -20.296875 C 6.269531 -20.316406 6.695312 -20.328125 7.40625 -20.328125 C 8.125 -20.328125 9.070312 -20.328125 10.25 -20.328125 L 14.765625 -20.328125 L 14.96875 -19.71875 C 15.070312 -19.300781 15.253906 -18.671875 15.515625 -17.828125 C 15.671875 -17.304688 15.796875 -16.863281 15.890625 -16.5 C 15.992188 -16.144531 16.066406 -15.863281 16.109375 -15.65625 C 16.128906 -15.539062 16.28125 -15.019531 16.5625 -14.09375 C 16.84375 -13.195312 17.054688 -12.476562 17.203125 -11.9375 C 17.421875 -11.195312 17.628906 -10.472656 17.828125 -9.765625 C 18.023438 -9.066406 18.222656 -8.394531 18.421875 -7.75 C 18.460938 -7.613281 18.515625 -7.441406 18.578125 -7.234375 C 18.640625 -7.023438 18.71875 -6.78125 18.8125 -6.5 C 18.894531 -6.21875 18.957031 -5.988281 19 -5.8125 C 19.039062 -5.644531 19.070312 -5.53125 19.09375 -5.46875 C 19.113281 -5.425781 19.132812 -5.332031 19.15625 -5.1875 C 19.1875 -5.050781 19.242188 -4.875 19.328125 -4.65625 C 19.492188 -4.195312 19.582031 -3.878906 19.59375 -3.703125 C 19.613281 -3.640625 19.644531 -3.523438 19.6875 -3.359375 C 19.726562 -3.203125 19.773438 -3.035156 19.828125 -2.859375 C 19.878906 -2.691406 19.925781 -2.535156 19.96875 -2.390625 C 20.019531 -2.253906 20.046875 -2.171875 20.046875 -2.140625 C 20.066406 -2.117188 20.140625 -1.882812 20.265625 -1.4375 C 20.285156 -1.363281 20.328125 -1.203125 20.390625 -0.953125 C 20.460938 -0.703125 20.539062 -0.445312 20.625 -0.1875 C 20.707031 0.0625 20.773438 0.289062 20.828125 0.5 C 20.890625 0.707031 20.929688 0.820312 20.953125 0.84375 C 20.953125 0.925781 20.984375 1.066406 21.046875 1.265625 C 21.109375 1.460938 21.15625 1.59375 21.1875 1.65625 C 21.207031 1.769531 21.226562 1.875 21.25 1.96875 C 21.269531 2.0625 21.289062 2.132812 21.3125 2.1875 C 21.332031 2.207031 21.300781 2.226562 21.21875 2.25 C 21.144531 2.269531 20.867188 2.28125 20.390625 2.28125 C 19.921875 2.28125 19.296875 2.28125 18.515625 2.28125 L 15.421875 2.28125 L 15.296875 1.921875 C 15.253906 1.828125 15.210938 1.703125 15.171875 1.546875 C 15.140625 1.398438 15.101562 1.222656 15.0625 1.015625 C 15.0625 0.984375 15.039062 0.894531 15 0.75 C 14.957031 0.613281 14.90625 0.429688 14.84375 0.203125 C 14.769531 -0.015625 14.707031 -0.21875 14.65625 -0.40625 C 14.601562 -0.59375 14.554688 -0.769531 14.515625 -0.9375 L 14.15625 -2.375 L 7.359375 -2.375 L 7.3125 -2.171875 C 7.125 -1.523438 6.953125 -0.910156 6.796875 -0.328125 C 6.648438 0.253906 6.519531 0.796875 6.40625 1.296875 L 6.125 2.28125 L 3.0625 2.28125 C 2.257812 2.257812 1.625 2.242188 1.15625 2.234375 C 0.6875 2.222656 0.453125 2.207031 0.453125 2.1875 C 1.035156 0.363281 1.585938 -1.460938 2.109375 -3.296875 C 2.628906 -5.128906 3.140625 -6.976562 3.640625 -8.84375 C 3.640625 -8.882812 3.675781 -9.035156 3.75 -9.296875 C 3.832031 -9.566406 3.894531 -9.785156 3.9375 -9.953125 C 4.039062 -10.253906 4.128906 -10.550781 4.203125 -10.84375 C 4.285156 -11.144531 4.367188 -11.457031 4.453125 -11.78125 C 4.523438 -12.0625 4.609375 -12.375 4.703125 -12.71875 C 4.796875 -13.0625 4.898438 -13.429688 5.015625 -13.828125 C 5.035156 -13.890625 5.066406 -14.003906 5.109375 -14.171875 C 5.148438 -14.347656 5.195312 -14.53125 5.25 -14.71875 C 5.300781 -14.90625 5.347656 -15.082031 5.390625 -15.25 C 5.441406 -15.425781 5.46875 -15.535156 5.46875 -15.578125 C 5.507812 -15.671875 5.550781 -15.785156 5.59375 -15.921875 C 5.632812 -16.066406 5.679688 -16.238281 5.734375 -16.4375 C 5.835938 -16.84375 5.898438 -17.078125 5.921875 -17.140625 C 5.960938 -17.234375 6.003906 -17.398438 6.046875 -17.640625 C 6.097656 -17.878906 6.175781 -18.179688 6.28125 -18.546875 C 6.445312 -19.023438 6.53125 -19.328125 6.53125 -19.453125 C 6.53125 -19.804688 6.378906 -20.066406 6.078125 -20.234375 Z M 11.15625 -13.765625 C 10.914062 -14.734375 10.773438 -15.21875 10.734375 -15.21875 C 10.691406 -15.09375 10.601562 -14.707031 10.46875 -14.0625 C 10.425781 -13.90625 10.375 -13.691406 10.3125 -13.421875 C 10.25 -13.148438 10.171875 -12.816406 10.078125 -12.421875 C 10.035156 -12.296875 9.960938 -12.007812 9.859375 -11.5625 C 9.753906 -11.125 9.644531 -10.664062 9.53125 -10.1875 C 9.375 -9.625 9.210938 -9.015625 9.046875 -8.359375 C 8.847656 -7.554688 8.75 -7.125 8.75 -7.0625 C 8.75 -7.019531 9.441406 -7 10.828125 -7 L 12.890625 -7 L 12.84375 -7.3125 C 12.675781 -7.945312 12.453125 -8.800781 12.171875 -9.875 C 11.890625 -10.945312 11.550781 -12.242188 11.15625 -13.765625 Z M 11.15625 -13.765625 "/></g></g></g><g fill="#000000" fill-opacity="1"><g transform="translate(90.656748, 48.615903)"><g><path d="M 0.59375 -20.328125 L 18.3125 -20.328125 L 18.3125 -15.71875 L 0.59375 -15.71875 Z M 6.1875 -14.671875 L 6.046875 -14.828125 L 12.53125 -14.828125 L 12.53125 2.28125 L 6.46875 2.28125 L 6.46875 -5.890625 C 6.46875 -8.691406 6.46875 -10.800781 6.46875 -12.21875 C 6.46875 -13.632812 6.457031 -14.363281 6.4375 -14.40625 C 6.414062 -14.476562 6.332031 -14.566406 6.1875 -14.671875 Z M 6.1875 -14.671875 "/></g></g></g><g fill="#000000" fill-opacity="1"><g transform="translate(109.560728, 48.615903)"><g><path d="M 0.59375 -20.328125 L 18.3125 -20.328125 L 18.3125 -15.71875 L 0.59375 -15.71875 Z M 6.1875 -14.671875 L 6.046875 -14.828125 L 12.53125 -14.828125 L 12.53125 2.28125 L 6.46875 2.28125 L 6.46875 -5.890625 C 6.46875 -8.691406 6.46875 -10.800781 6.46875 -12.21875 C 6.46875 -13.632812 6.457031 -14.363281 6.4375 -14.40625 C 6.414062 -14.476562 6.332031 -14.566406 6.1875 -14.671875 Z M 6.1875 -14.671875 "/></g></g></g><g fill="#000000" fill-opacity="1"><g transform="translate(128.464708, 48.615903)"><g><path d="M 6.078125 -20.234375 C 6.015625 -20.253906 6.03125 -20.273438 6.125 -20.296875 C 6.269531 -20.316406 6.695312 -20.328125 7.40625 -20.328125 C 8.125 -20.328125 9.070312 -20.328125 10.25 -20.328125 L 14.765625 -20.328125 L 14.96875 -19.71875 C 15.070312 -19.300781 15.253906 -18.671875 15.515625 -17.828125 C 15.671875 -17.304688 15.796875 -16.863281 15.890625 -16.5 C 15.992188 -16.144531 16.066406 -15.863281 16.109375 -15.65625 C 16.128906 -15.539062 16.28125 -15.019531 16.5625 -14.09375 C 16.84375 -13.195312 17.054688 -12.476562 17.203125 -11.9375 C 17.421875 -11.195312 17.628906 -10.472656 17.828125 -9.765625 C 18.023438 -9.066406 18.222656 -8.394531 18.421875 -7.75 C 18.460938 -7.613281 18.515625 -7.441406 18.578125 -7.234375 C 18.640625 -7.023438 18.71875 -6.78125 18.8125 -6.5 C 18.894531 -6.21875 18.957031 -5.988281 19 -5.8125 C 19.039062 -5.644531 19.070312 -5.53125 19.09375 -5.46875 C 19.113281 -5.425781 19.132812 -5.332031 19.15625 -5.1875 C 19.1875 -5.050781 19.242188 -4.875 19.328125 -4.65625 C 19.492188 -4.195312 19.582031 -3.878906 19.59375 -3.703125 C 19.613281 -3.640625 19.644531 -3.523438 19.6875 -3.359375 C 19.726562 -3.203125 19.773438 -3.035156 19.828125 -2.859375 C 19.878906 -2.691406 19.925781 -2.535156 19.96875 -2.390625 C 20.019531 -2.253906 20.046875 -2.171875 20.046875 -2.140625 C 20.066406 -2.117188 20.140625 -1.882812 20.265625 -1.4375 C 20.285156 -1.363281 20.328125 -1.203125 20.390625 -0.953125 C 20.460938 -0.703125 20.539062 -0.445312 20.625 -0.1875 C 20.707031 0.0625 20.773438 0.289062 20.828125 0.5 C 20.890625 0.707031 20.929688 0.820312 20.953125 0.84375 C 20.953125 0.925781 20.984375 1.066406 21.046875 1.265625 C 21.109375 1.460938 21.15625 1.59375 21.1875 1.65625 C 21.207031 1.769531 21.226562 1.875 21.25 1.96875 C 21.269531 2.0625 21.289062 2.132812 21.3125 2.1875 C 21.332031 2.207031 21.300781 2.226562 21.21875 2.25 C 21.144531 2.269531 20.867188 2.28125 20.390625 2.28125 C 19.921875 2.28125 19.296875 2.28125 18.515625 2.28125 L 15.421875 2.28125 L 15.296875 1.921875 C 15.253906 1.828125 15.210938 1.703125 15.171875 1.546875 C 15.140625 1.398438 15.101562 1.222656 15.0625 1.015625 C 15.0625 0.984375 15.039062 0.894531 15 0.75 C 14.957031 0.613281 14.90625 0.429688 14.84375 0.203125 C 14.769531 -0.015625 14.707031 -0.21875 14.65625 -0.40625 C 14.601562 -0.59375 14.554688 -0.769531 14.515625 -0.9375 L 14.15625 -2.375 L 7.359375 -2.375 L 7.3125 -2.171875 C 7.125 -1.523438 6.953125 -0.910156 6.796875 -0.328125 C 6.648438 0.253906 6.519531 0.796875 6.40625 1.296875 L 6.125 2.28125 L 3.0625 2.28125 C 2.257812 2.257812 1.625 2.242188 1.15625 2.234375 C 0.6875 2.222656 0.453125 2.207031 0.453125 2.1875 C 1.035156 0.363281 1.585938 -1.460938 2.109375 -3.296875 C 2.628906 -5.128906 3.140625 -6.976562 3.640625 -8.84375 C 3.640625 -8.882812 3.675781 -9.035156 3.75 -9.296875 C 3.832031 -9.566406 3.894531 -9.785156 3.9375 -9.953125 C 4.039062 -10.253906 4.128906 -10.550781 4.203125 -10.84375 C 4.285156 -11.144531 4.367188 -11.457031 4.453125 -11.78125 C 4.523438 -12.0625 4.609375 -12.375 4.703125 -12.71875 C 4.796875 -13.0625 4.898438 -13.429688 5.015625 -13.828125 C 5.035156 -13.890625 5.066406 -14.003906 5.109375 -14.171875 C 5.148438 -14.347656 5.195312 -14.53125 5.25 -14.71875 C 5.300781 -14.90625 5.347656 -15.082031 5.390625 -15.25 C 5.441406 -15.425781 5.46875 -15.535156 5.46875 -15.578125 C 5.507812 -15.671875 5.550781 -15.785156 5.59375 -15.921875 C 5.632812 -16.066406 5.679688 -16.238281 5.734375 -16.4375 C 5.835938 -16.84375 5.898438 -17.078125 5.921875 -17.140625 C 5.960938 -17.234375 6.003906 -17.398438 6.046875 -17.640625 C 6.097656 -17.878906 6.175781 -18.179688 6.28125 -18.546875 C 6.445312 -19.023438 6.53125 -19.328125 6.53125 -19.453125 C 6.53125 -19.804688 6.378906 -20.066406 6.078125 -20.234375 Z M 11.15625 -13.765625 C 10.914062 -14.734375 10.773438 -15.21875 10.734375 -15.21875 C 10.691406 -15.09375 10.601562 -14.707031 10.46875 -14.0625 C 10.425781 -13.90625 10.375 -13.691406 10.3125 -13.421875 C 10.25 -13.148438 10.171875 -12.816406 10.078125 -12.421875 C 10.035156 -12.296875 9.960938 -12.007812 9.859375 -11.5625 C 9.753906 -11.125 9.644531 -10.664062 9.53125 -10.1875 C 9.375 -9.625 9.210938 -9.015625 9.046875 -8.359375 C 8.847656 -7.554688 8.75 -7.125 8.75 -7.0625 C 8.75 -7.019531 9.441406 -7 10.828125 -7 L 12.890625 -7 L 12.84375 -7.3125 C 12.675781 -7.945312 12.453125 -8.800781 12.171875 -9.875 C 11.890625 -10.945312 11.550781 -12.242188 11.15625 -13.765625 Z M 11.15625 -13.765625 "/></g></g></g><g fill="#000000" fill-opacity="1"><g transform="translate(150.253873, 48.615903)"><g><path d="M 1.234375 -8.5625 L 13.140625 -8.5625 L 13.140625 -4.59375 L 1.234375 -4.59375 Z M 1.234375 -8.5625 "/></g></g></g><g fill="#000000" fill-opacity="1"><g transform="translate(164.409323, 48.615903)"><g><path d="M 1.78125 -20.265625 C 1.757812 -20.265625 1.773438 -20.273438 1.828125 -20.296875 C 1.929688 -20.316406 2.238281 -20.328125 2.75 -20.328125 C 3.257812 -20.328125 3.988281 -20.328125 4.9375 -20.328125 L 8.296875 -20.328125 L 8.296875 2.28125 L 2.1875 2.28125 L 2.1875 -19.8125 L 2.078125 -19.984375 C 1.953125 -20.109375 1.851562 -20.203125 1.78125 -20.265625 Z M 10.484375 -20.46875 C 10.691406 -20.488281 10.929688 -20.503906 11.203125 -20.515625 C 11.472656 -20.523438 11.785156 -20.519531 12.140625 -20.5 C 12.984375 -20.457031 13.753906 -20.363281 14.453125 -20.21875 C 15.160156 -20.082031 15.8125 -19.863281 16.40625 -19.5625 C 17.007812 -19.269531 17.566406 -18.882812 18.078125 -18.40625 C 18.585938 -17.9375 19.085938 -17.34375 19.578125 -16.625 C 20.472656 -15.238281 21.09375 -13.664062 21.4375 -11.90625 C 21.738281 -10.300781 21.816406 -8.75 21.671875 -7.25 C 21.535156 -5.820312 21.195312 -4.515625 20.65625 -3.328125 C 20.113281 -2.148438 19.398438 -1.128906 18.515625 -0.265625 C 17.640625 0.585938 16.601562 1.25 15.40625 1.71875 C 14.21875 2.195312 12.890625 2.4375 11.421875 2.4375 C 10.984375 2.4375 10.582031 2.410156 10.21875 2.359375 C 9.863281 2.304688 9.523438 2.234375 9.203125 2.140625 C 9.117188 2.117188 9.078125 1.40625 9.078125 0 L 9.078125 -2.109375 L 10.046875 -2.109375 C 11.046875 -2.109375 11.882812 -2.253906 12.5625 -2.546875 C 13.25 -2.847656 13.800781 -3.273438 14.21875 -3.828125 C 14.632812 -4.378906 14.9375 -5.046875 15.125 -5.828125 C 15.320312 -6.609375 15.441406 -7.492188 15.484375 -8.484375 C 15.523438 -9.222656 15.507812 -10.023438 15.4375 -10.890625 C 15.363281 -11.765625 15.195312 -12.550781 14.9375 -13.25 C 14.757812 -13.78125 14.503906 -14.210938 14.171875 -14.546875 C 13.835938 -14.890625 13.46875 -15.164062 13.0625 -15.375 C 12.65625 -15.582031 12.210938 -15.738281 11.734375 -15.84375 C 11.265625 -15.945312 10.78125 -16.003906 10.28125 -16.015625 L 9.078125 -16.046875 L 9.078125 -20.203125 L 9.5625 -20.328125 C 9.914062 -20.421875 10.222656 -20.46875 10.484375 -20.46875 Z M 10.484375 -20.46875 "/></g></g></g><g fill="#000000" fill-opacity="1"><g transform="translate(187.520869, 48.615903)"><g><path d="M 1.953125 -20.203125 L 1.71875 -20.328125 L 8.5 -20.328125 L 8.5 2.28125 L 2.40625 2.28125 L 2.40625 -19.625 L 2.3125 -19.84375 C 2.226562 -20 2.109375 -20.117188 1.953125 -20.203125 Z M 1.953125 -20.203125 "/></g></g></g><g fill="#000000" fill-opacity="1"><g transform="translate(198.280211, 48.615903)"><g><path d="M 8.84375 -20.5 C 8.914062 -20.519531 9.070312 -20.535156 9.3125 -20.546875 C 9.5625 -20.554688 9.875 -20.550781 10.25 -20.53125 C 10.894531 -20.507812 11.503906 -20.46875 12.078125 -20.40625 C 12.660156 -20.351562 13.222656 -20.25 13.765625 -20.09375 C 14.304688 -19.945312 14.835938 -19.738281 15.359375 -19.46875 C 15.878906 -19.195312 16.378906 -18.835938 16.859375 -18.390625 C 17.640625 -17.671875 18.203125 -16.8125 18.546875 -15.8125 C 18.585938 -15.707031 18.632812 -15.570312 18.6875 -15.40625 C 18.738281 -15.238281 18.78125 -15.046875 18.8125 -14.828125 C 18.851562 -14.597656 18.890625 -14.410156 18.921875 -14.265625 C 18.953125 -14.128906 18.96875 -14.035156 18.96875 -13.984375 L 18.96875 -13.828125 L 13.078125 -13.828125 L 13.015625 -14.15625 C 12.953125 -14.519531 12.8125 -14.832031 12.59375 -15.09375 C 12.375 -15.351562 12.117188 -15.570312 11.828125 -15.75 C 11.535156 -15.925781 11.21875 -16.054688 10.875 -16.140625 C 10.539062 -16.222656 10.203125 -16.265625 9.859375 -16.265625 C 8.617188 -16.265625 7.976562 -15.671875 7.9375 -14.484375 C 7.9375 -14.023438 8.175781 -13.625 8.65625 -13.28125 C 9.132812 -12.945312 10 -12.597656 11.25 -12.234375 C 12.226562 -11.910156 13.0625 -11.628906 13.75 -11.390625 C 14.445312 -11.148438 15.023438 -10.921875 15.484375 -10.703125 C 15.921875 -10.484375 16.3125 -10.257812 16.65625 -10.03125 C 17 -9.800781 17.300781 -9.5625 17.5625 -9.3125 C 18.21875 -8.675781 18.71875 -7.925781 19.0625 -7.0625 C 19.414062 -6.195312 19.578125 -5.304688 19.546875 -4.390625 C 19.460938 -3.085938 19.128906 -1.992188 18.546875 -1.109375 C 17.960938 -0.234375 17.21875 0.472656 16.3125 1.015625 C 15.414062 1.554688 14.410156 1.941406 13.296875 2.171875 C 12.191406 2.410156 11.066406 2.539062 9.921875 2.5625 C 8.898438 2.5625 7.9375 2.445312 7.03125 2.21875 C 6.132812 2 5.316406 1.660156 4.578125 1.203125 C 3.847656 0.742188 3.21875 0.144531 2.6875 -0.59375 C 2.15625 -1.34375 1.75 -2.238281 1.46875 -3.28125 C 1.269531 -3.9375 1.171875 -4.425781 1.171875 -4.75 C 1.171875 -4.832031 2.171875 -4.851562 4.171875 -4.8125 L 7.21875 -4.8125 L 7.25 -4.390625 C 7.363281 -3.804688 7.613281 -3.289062 8 -2.84375 C 8.394531 -2.394531 8.851562 -2.085938 9.375 -1.921875 C 9.519531 -1.878906 9.679688 -1.847656 9.859375 -1.828125 C 10.035156 -1.804688 10.238281 -1.796875 10.46875 -1.796875 C 10.96875 -1.796875 11.445312 -1.882812 11.90625 -2.0625 C 12.363281 -2.25 12.691406 -2.601562 12.890625 -3.125 C 13.097656 -3.539062 13.117188 -4.019531 12.953125 -4.5625 C 12.796875 -5.144531 12.554688 -5.554688 12.234375 -5.796875 C 11.859375 -6.097656 10.828125 -6.476562 9.140625 -6.9375 C 8.316406 -7.164062 7.585938 -7.390625 6.953125 -7.609375 C 6.328125 -7.828125 5.785156 -8.046875 5.328125 -8.265625 C 4.003906 -8.910156 3.066406 -9.695312 2.515625 -10.625 C 1.960938 -11.5625 1.71875 -12.789062 1.78125 -14.3125 C 1.8125 -15.269531 2 -16.101562 2.34375 -16.8125 C 2.6875 -17.53125 3.140625 -18.140625 3.703125 -18.640625 C 4.273438 -19.140625 4.941406 -19.539062 5.703125 -19.84375 C 6.472656 -20.144531 7.296875 -20.34375 8.171875 -20.4375 C 8.296875 -20.4375 8.425781 -20.445312 8.5625 -20.46875 C 8.707031 -20.488281 8.800781 -20.5 8.84375 -20.5 Z M 8.84375 -20.5 "/></g></g></g><g fill="#000000" fill-opacity="1"><g transform="translate(218.927322, 48.615903)"><g><path d="M 6.078125 -20.234375 C 6.015625 -20.253906 6.03125 -20.273438 6.125 -20.296875 C 6.269531 -20.316406 6.695312 -20.328125 7.40625 -20.328125 C 8.125 -20.328125 9.070312 -20.328125 10.25 -20.328125 L 14.765625 -20.328125 L 14.96875 -19.71875 C 15.070312 -19.300781 15.253906 -18.671875 15.515625 -17.828125 C 15.671875 -17.304688 15.796875 -16.863281 15.890625 -16.5 C 15.992188 -16.144531 16.066406 -15.863281 16.109375 -15.65625 C 16.128906 -15.539062 16.28125 -15.019531 16.5625 -14.09375 C 16.84375 -13.195312 17.054688 -12.476562 17.203125 -11.9375 C 17.421875 -11.195312 17.628906 -10.472656 17.828125 -9.765625 C 18.023438 -9.066406 18.222656 -8.394531 18.421875 -7.75 C 18.460938 -7.613281 18.515625 -7.441406 18.578125 -7.234375 C 18.640625 -7.023438 18.71875 -6.78125 18.8125 -6.5 C 18.894531 -6.21875 18.957031 -5.988281 19 -5.8125 C 19.039062 -5.644531 19.070312 -5.53125 19.09375 -5.46875 C 19.113281 -5.425781 19.132812 -5.332031 19.15625 -5.1875 C 19.1875 -5.050781 19.242188 -4.875 19.328125 -4.65625 C 19.492188 -4.195312 19.582031 -3.878906 19.59375 -3.703125 C 19.613281 -3.640625 19.644531 -3.523438 19.6875 -3.359375 C 19.726562 -3.203125 19.773438 -3.035156 19.828125 -2.859375 C 19.878906 -2.691406 19.925781 -2.535156 19.96875 -2.390625 C 20.019531 -2.253906 20.046875 -2.171875 20.046875 -2.140625 C 20.066406 -2.117188 20.140625 -1.882812 20.265625 -1.4375 C 20.285156 -1.363281 20.328125 -1.203125 20.390625 -0.953125 C 20.460938 -0.703125 20.539062 -0.445312 20.625 -0.1875 C 20.707031 0.0625 20.773438 0.289062 20.828125 0.5 C 20.890625 0.707031 20.929688 0.820312 20.953125 0.84375 C 20.953125 0.925781 20.984375 1.066406 21.046875 1.265625 C 21.109375 1.460938 21.15625 1.59375 21.1875 1.65625 C 21.207031 1.769531 21.226562 1.875 21.25 1.96875 C 21.269531 2.0625 21.289062 2.132812 21.3125 2.1875 C 21.332031 2.207031 21.300781 2.226562 21.21875 2.25 C 21.144531 2.269531 20.867188 2.28125 20.390625 2.28125 C 19.921875 2.28125 19.296875 2.28125 18.515625 2.28125 L 15.421875 2.28125 L 15.296875 1.921875 C 15.253906 1.828125 15.210938 1.703125 15.171875 1.546875 C 15.140625 1.398438 15.101562 1.222656 15.0625 1.015625 C 15.0625 0.984375 15.039062 0.894531 15 0.75 C 14.957031 0.613281 14.90625 0.429688 14.84375 0.203125 C 14.769531 -0.015625 14.707031 -0.21875 14.65625 -0.40625 C 14.601562 -0.59375 14.554688 -0.769531 14.515625 -0.9375 L 14.15625 -2.375 L 7.359375 -2.375 L 7.3125 -2.171875 C 7.125 -1.523438 6.953125 -0.910156 6.796875 -0.328125 C 6.648438 0.253906 6.519531 0.796875 6.40625 1.296875 L 6.125 2.28125 L 3.0625 2.28125 C 2.257812 2.257812 1.625 2.242188 1.15625 2.234375 C 0.6875 2.222656 0.453125 2.207031 0.453125 2.1875 C 1.035156 0.363281 1.585938 -1.460938 2.109375 -3.296875 C 2.628906 -5.128906 3.140625 -6.976562 3.640625 -8.84375 C 3.640625 -8.882812 3.675781 -9.035156 3.75 -9.296875 C 3.832031 -9.566406 3.894531 -9.785156 3.9375 -9.953125 C 4.039062 -10.253906 4.128906 -10.550781 4.203125 -10.84375 C 4.285156 -11.144531 4.367188 -11.457031 4.453125 -11.78125 C 4.523438 -12.0625 4.609375 -12.375 4.703125 -12.71875 C 4.796875 -13.0625 4.898438 -13.429688 5.015625 -13.828125 C 5.035156 -13.890625 5.066406 -14.003906 5.109375 -14.171875 C 5.148438 -14.347656 5.195312 -14.53125 5.25 -14.71875 C 5.300781 -14.90625 5.347656 -15.082031 5.390625 -15.25 C 5.441406 -15.425781 5.46875 -15.535156 5.46875 -15.578125 C 5.507812 -15.671875 5.550781 -15.785156 5.59375 -15.921875 C 5.632812 -16.066406 5.679688 -16.238281 5.734375 -16.4375 C 5.835938 -16.84375 5.898438 -17.078125 5.921875 -17.140625 C 5.960938 -17.234375 6.003906 -17.398438 6.046875 -17.640625 C 6.097656 -17.878906 6.175781 -18.179688 6.28125 -18.546875 C 6.445312 -19.023438 6.53125 -19.328125 6.53125 -19.453125 C 6.53125 -19.804688 6.378906 -20.066406 6.078125 -20.234375 Z M 11.15625 -13.765625 C 10.914062 -14.734375 10.773438 -15.21875 10.734375 -15.21875 C 10.691406 -15.09375 10.601562 -14.707031 10.46875 -14.0625 C 10.425781 -13.90625 10.375 -13.691406 10.3125 -13.421875 C 10.25 -13.148438 10.171875 -12.816406 10.078125 -12.421875 C 10.035156 -12.296875 9.960938 -12.007812 9.859375 -11.5625 C 9.753906 -11.125 9.644531 -10.664062 9.53125 -10.1875 C 9.375 -9.625 9.210938 -9.015625 9.046875 -8.359375 C 8.847656 -7.554688 8.75 -7.125 8.75 -7.0625 C 8.75 -7.019531 9.441406 -7 10.828125 -7 L 12.890625 -7 L 12.84375 -7.3125 C 12.675781 -7.945312 12.453125 -8.800781 12.171875 -9.875 C 11.890625 -10.945312 11.550781 -12.242188 11.15625 -13.765625 Z M 11.15625 -13.765625 "/></g></g></g><g fill="#000000" fill-opacity="1"><g transform="translate(240.716488, 48.615903)"><g><path d="M 0.328125 -20.265625 C 0.304688 -20.265625 0.347656 -20.273438 0.453125 -20.296875 C 0.566406 -20.316406 0.851562 -20.328125 1.3125 -20.328125 C 1.78125 -20.328125 2.425781 -20.328125 3.25 -20.328125 L 6.375 -20.328125 L 6.46875 -19.6875 C 6.5625 -19.226562 6.617188 -18.796875 6.640625 -18.390625 C 6.660156 -18.316406 6.6875 -18.160156 6.71875 -17.921875 C 6.75 -17.679688 6.804688 -17.359375 6.890625 -16.953125 C 6.921875 -16.671875 6.945312 -16.4375 6.96875 -16.25 C 6.988281 -16.0625 7.007812 -15.925781 7.03125 -15.84375 C 7.050781 -15.695312 7.082031 -15.5 7.125 -15.25 C 7.164062 -15 7.207031 -14.675781 7.25 -14.28125 C 7.269531 -14.132812 7.296875 -13.898438 7.328125 -13.578125 C 7.367188 -13.265625 7.429688 -12.847656 7.515625 -12.328125 C 7.554688 -12.128906 7.617188 -11.675781 7.703125 -10.96875 C 7.703125 -10.90625 7.710938 -10.738281 7.734375 -10.46875 C 7.765625 -10.207031 7.800781 -9.910156 7.84375 -9.578125 C 7.882812 -9.242188 7.925781 -8.9375 7.96875 -8.65625 C 8.007812 -8.375 8.039062 -8.203125 8.0625 -8.140625 C 8.0625 -8.046875 8.085938 -7.859375 8.140625 -7.578125 C 8.160156 -7.472656 8.179688 -7.347656 8.203125 -7.203125 C 8.222656 -7.066406 8.242188 -6.890625 8.265625 -6.671875 C 8.347656 -6.046875 8.410156 -5.734375 8.453125 -5.734375 C 8.484375 -5.734375 8.53125 -5.957031 8.59375 -6.40625 C 8.695312 -6.863281 8.832031 -7.515625 9 -8.359375 C 9.175781 -9.203125 9.382812 -10.273438 9.625 -11.578125 C 9.71875 -12.054688 9.789062 -12.425781 9.84375 -12.6875 C 9.894531 -12.945312 9.929688 -13.109375 9.953125 -13.171875 C 9.953125 -13.171875 10.03125 -13.582031 10.1875 -14.40625 C 10.40625 -15.5 10.523438 -16.054688 10.546875 -16.078125 C 10.648438 -16.546875 10.726562 -16.929688 10.78125 -17.234375 C 10.832031 -17.546875 10.875 -17.785156 10.90625 -17.953125 C 10.90625 -18.003906 10.925781 -18.125 10.96875 -18.3125 C 11.007812 -18.507812 11.046875 -18.707031 11.078125 -18.90625 C 11.109375 -19.101562 11.144531 -19.285156 11.1875 -19.453125 C 11.226562 -19.628906 11.25 -19.726562 11.25 -19.75 L 11.390625 -20.328125 L 13.890625 -20.328125 C 15.535156 -20.328125 16.359375 -20.304688 16.359375 -20.265625 C 16.359375 -20.222656 16.394531 -19.988281 16.46875 -19.5625 C 16.550781 -19.144531 16.671875 -18.554688 16.828125 -17.796875 C 16.890625 -17.472656 16.941406 -17.203125 16.984375 -16.984375 C 17.023438 -16.765625 17.054688 -16.601562 17.078125 -16.5 C 17.253906 -15.300781 17.453125 -14.113281 17.671875 -12.9375 C 17.890625 -11.769531 18.125 -10.59375 18.375 -9.40625 C 18.375 -9.34375 18.394531 -9.171875 18.4375 -8.890625 C 18.488281 -8.617188 18.539062 -8.320312 18.59375 -8 C 18.644531 -7.675781 18.6875 -7.382812 18.71875 -7.125 C 18.757812 -6.863281 18.789062 -6.722656 18.8125 -6.703125 C 18.851562 -6.679688 18.882812 -6.53125 18.90625 -6.25 C 18.945312 -6.09375 18.976562 -5.957031 19 -5.84375 C 19.019531 -5.738281 19.039062 -5.632812 19.0625 -5.53125 C 19.0625 -5.40625 19.070312 -5.304688 19.09375 -5.234375 C 19.113281 -5.253906 19.539062 -7.976562 20.375 -13.40625 C 20.539062 -14.488281 20.664062 -15.332031 20.75 -15.9375 C 20.84375 -16.550781 20.910156 -16.960938 20.953125 -17.171875 C 21.109375 -18.046875 21.195312 -18.664062 21.21875 -19.03125 C 21.28125 -19.269531 21.332031 -19.523438 21.375 -19.796875 C 21.414062 -20.066406 21.4375 -20.210938 21.4375 -20.234375 L 21.46875 -20.328125 L 26.71875 -20.328125 L 26.453125 -18.96875 C 26.191406 -17.488281 25.960938 -16.1875 25.765625 -15.0625 C 25.566406 -13.9375 25.382812 -12.972656 25.21875 -12.171875 C 25.21875 -12.171875 25.179688 -12.019531 25.109375 -11.71875 C 25.046875 -11.414062 24.96875 -11.039062 24.875 -10.59375 C 24.78125 -10.144531 24.679688 -9.660156 24.578125 -9.140625 C 24.484375 -8.617188 24.390625 -8.117188 24.296875 -7.640625 C 24.210938 -7.171875 24.140625 -6.757812 24.078125 -6.40625 C 24.015625 -6.0625 23.972656 -5.847656 23.953125 -5.765625 C 23.816406 -5.109375 23.71875 -4.597656 23.65625 -4.234375 C 23.59375 -3.878906 23.550781 -3.660156 23.53125 -3.578125 C 23.5 -3.234375 23.429688 -2.78125 23.328125 -2.21875 C 23.222656 -1.664062 23.09375 -0.988281 22.9375 -0.1875 C 22.632812 1.414062 22.472656 2.21875 22.453125 2.21875 C 22.429688 2.21875 22.285156 2.21875 22.015625 2.21875 C 21.742188 2.21875 21.347656 2.226562 20.828125 2.25 C 20.285156 2.269531 19.757812 2.28125 19.25 2.28125 C 18.738281 2.28125 18.253906 2.28125 17.796875 2.28125 L 16.171875 2.28125 C 16.171875 2.1875 16.039062 1.429688 15.78125 0.015625 C 15.519531 -1.398438 15.128906 -3.476562 14.609375 -6.21875 C 14.503906 -6.738281 14.382812 -7.367188 14.25 -8.109375 C 14.113281 -8.859375 13.960938 -9.710938 13.796875 -10.671875 C 13.710938 -10.992188 13.660156 -11.226562 13.640625 -11.375 C 13.628906 -11.53125 13.613281 -11.65625 13.59375 -11.75 C 13.59375 -11.8125 13.585938 -11.851562 13.578125 -11.875 C 13.566406 -11.894531 13.5625 -11.914062 13.5625 -11.9375 C 13.539062 -11.957031 13.519531 -11.957031 13.5 -11.9375 C 13.476562 -11.914062 13.425781 -11.691406 13.34375 -11.265625 C 13.300781 -11.109375 13.238281 -10.796875 13.15625 -10.328125 C 13.082031 -9.859375 12.96875 -9.234375 12.8125 -8.453125 C 12.550781 -7.128906 12.320312 -5.976562 12.125 -5 C 11.9375 -4.03125 11.773438 -3.207031 11.640625 -2.53125 C 11.617188 -2.363281 11.582031 -2.148438 11.53125 -1.890625 C 11.476562 -1.628906 11.453125 -1.476562 11.453125 -1.4375 C 11.390625 -1.21875 11.335938 -1 11.296875 -0.78125 C 11.222656 -0.195312 11.101562 0.460938 10.9375 1.203125 C 10.914062 1.304688 10.898438 1.410156 10.890625 1.515625 C 10.878906 1.628906 10.859375 1.753906 10.828125 1.890625 L 10.765625 2.25 L 7.875 2.25 C 5.96875 2.289062 4.957031 2.289062 4.84375 2.25 C 4.757812 2.25 4.707031 2.210938 4.6875 2.140625 C 4.664062 1.992188 4.632812 1.832031 4.59375 1.65625 C 4.5625 1.476562 4.523438 1.253906 4.484375 0.984375 C 4.460938 0.785156 4.34375 0.0234375 4.125 -1.296875 C 3.957031 -2.140625 3.773438 -3.179688 3.578125 -4.421875 C 3.378906 -5.660156 3.140625 -7.101562 2.859375 -8.75 C 2.816406 -9.125 2.753906 -9.566406 2.671875 -10.078125 C 2.515625 -11.054688 2.351562 -12.054688 2.1875 -13.078125 C 2.03125 -14.097656 1.875 -15.140625 1.71875 -16.203125 C 1.570312 -17.109375 1.460938 -17.800781 1.390625 -18.28125 C 1.328125 -18.757812 1.273438 -19.050781 1.234375 -19.15625 C 1.066406 -19.707031 0.765625 -20.078125 0.328125 -20.265625 Z M 0.328125 -20.265625 "/></g></g></g><g fill="#000000" fill-opacity="1"><g transform="translate(268.095701, 48.615903)"><g><path d="M 6.078125 -20.234375 C 6.015625 -20.253906 6.03125 -20.273438 6.125 -20.296875 C 6.269531 -20.316406 6.695312 -20.328125 7.40625 -20.328125 C 8.125 -20.328125 9.070312 -20.328125 10.25 -20.328125 L 14.765625 -20.328125 L 14.96875 -19.71875 C 15.070312 -19.300781 15.253906 -18.671875 15.515625 -17.828125 C 15.671875 -17.304688 15.796875 -16.863281 15.890625 -16.5 C 15.992188 -16.144531 16.066406 -15.863281 16.109375 -15.65625 C 16.128906 -15.539062 16.28125 -15.019531 16.5625 -14.09375 C 16.84375 -13.195312 17.054688 -12.476562 17.203125 -11.9375 C 17.421875 -11.195312 17.628906 -10.472656 17.828125 -9.765625 C 18.023438 -9.066406 18.222656 -8.394531 18.421875 -7.75 C 18.460938 -7.613281 18.515625 -7.441406 18.578125 -7.234375 C 18.640625 -7.023438 18.71875 -6.78125 18.8125 -6.5 C 18.894531 -6.21875 18.957031 -5.988281 19 -5.8125 C 19.039062 -5.644531 19.070312 -5.53125 19.09375 -5.46875 C 19.113281 -5.425781 19.132812 -5.332031 19.15625 -5.1875 C 19.1875 -5.050781 19.242188 -4.875 19.328125 -4.65625 C 19.492188 -4.195312 19.582031 -3.878906 19.59375 -3.703125 C 19.613281 -3.640625 19.644531 -3.523438 19.6875 -3.359375 C 19.726562 -3.203125 19.773438 -3.035156 19.828125 -2.859375 C 19.878906 -2.691406 19.925781 -2.535156 19.96875 -2.390625 C 20.019531 -2.253906 20.046875 -2.171875 20.046875 -2.140625 C 20.066406 -2.117188 20.140625 -1.882812 20.265625 -1.4375 C 20.285156 -1.363281 20.328125 -1.203125 20.390625 -0.953125 C 20.460938 -0.703125 20.539062 -0.445312 20.625 -0.1875 C 20.707031 0.0625 20.773438 0.289062 20.828125 0.5 C 20.890625 0.707031 20.929688 0.820312 20.953125 0.84375 C 20.953125 0.925781 20.984375 1.066406 21.046875 1.265625 C 21.109375 1.460938 21.15625 1.59375 21.1875 1.65625 C 21.207031 1.769531 21.226562 1.875 21.25 1.96875 C 21.269531 2.0625 21.289062 2.132812 21.3125 2.1875 C 21.332031 2.207031 21.300781 2.226562 21.21875 2.25 C 21.144531 2.269531 20.867188 2.28125 20.390625 2.28125 C 19.921875 2.28125 19.296875 2.28125 18.515625 2.28125 L 15.421875 2.28125 L 15.296875 1.921875 C 15.253906 1.828125 15.210938 1.703125 15.171875 1.546875 C 15.140625 1.398438 15.101562 1.222656 15.0625 1.015625 C 15.0625 0.984375 15.039062 0.894531 15 0.75 C 14.957031 0.613281 14.90625 0.429688 14.84375 0.203125 C 14.769531 -0.015625 14.707031 -0.21875 14.65625 -0.40625 C 14.601562 -0.59375 14.554688 -0.769531 14.515625 -0.9375 L 14.15625 -2.375 L 7.359375 -2.375 L 7.3125 -2.171875 C 7.125 -1.523438 6.953125 -0.910156 6.796875 -0.328125 C 6.648438 0.253906 6.519531 0.796875 6.40625 1.296875 L 6.125 2.28125 L 3.0625 2.28125 C 2.257812 2.257812 1.625 2.242188 1.15625 2.234375 C 0.6875 2.222656 0.453125 2.207031 0.453125 2.1875 C 1.035156 0.363281 1.585938 -1.460938 2.109375 -3.296875 C 2.628906 -5.128906 3.140625 -6.976562 3.640625 -8.84375 C 3.640625 -8.882812 3.675781 -9.035156 3.75 -9.296875 C 3.832031 -9.566406 3.894531 -9.785156 3.9375 -9.953125 C 4.039062 -10.253906 4.128906 -10.550781 4.203125 -10.84375 C 4.285156 -11.144531 4.367188 -11.457031 4.453125 -11.78125 C 4.523438 -12.0625 4.609375 -12.375 4.703125 -12.71875 C 4.796875 -13.0625 4.898438 -13.429688 5.015625 -13.828125 C 5.035156 -13.890625 5.066406 -14.003906 5.109375 -14.171875 C 5.148438 -14.347656 5.195312 -14.53125 5.25 -14.71875 C 5.300781 -14.90625 5.347656 -15.082031 5.390625 -15.25 C 5.441406 -15.425781 5.46875 -15.535156 5.46875 -15.578125 C 5.507812 -15.671875 5.550781 -15.785156 5.59375 -15.921875 C 5.632812 -16.066406 5.679688 -16.238281 5.734375 -16.4375 C 5.835938 -16.84375 5.898438 -17.078125 5.921875 -17.140625 C 5.960938 -17.234375 6.003906 -17.398438 6.046875 -17.640625 C 6.097656 -17.878906 6.175781 -18.179688 6.28125 -18.546875 C 6.445312 -19.023438 6.53125 -19.328125 6.53125 -19.453125 C 6.53125 -19.804688 6.378906 -20.066406 6.078125 -20.234375 Z M 11.15625 -13.765625 C 10.914062 -14.734375 10.773438 -15.21875 10.734375 -15.21875 C 10.691406 -15.09375 10.601562 -14.707031 10.46875 -14.0625 C 10.425781 -13.90625 10.375 -13.691406 10.3125 -13.421875 C 10.25 -13.148438 10.171875 -12.816406 10.078125 -12.421875 C 10.035156 -12.296875 9.960938 -12.007812 9.859375 -11.5625 C 9.753906 -11.125 9.644531 -10.664062 9.53125 -10.1875 C 9.375 -9.625 9.210938 -9.015625 9.046875 -8.359375 C 8.847656 -7.554688 8.75 -7.125 8.75 -7.0625 C 8.75 -7.019531 9.441406 -7 10.828125 -7 L 12.890625 -7 L 12.84375 -7.3125 C 12.675781 -7.945312 12.453125 -8.800781 12.171875 -9.875 C 11.890625 -10.945312 11.550781 -12.242188 11.15625 -13.765625 Z M 11.15625 -13.765625 "/></g></g></g><g fill="#000000" fill-opacity="1"><g transform="translate(289.884866, 48.615903)"><g><path d="M 8.421875 -10.796875 L 10.15625 -10.796875 C 10.65625 -10.796875 11.054688 -10.800781 11.359375 -10.8125 C 11.660156 -10.820312 11.875 -10.835938 12 -10.859375 C 12.21875 -10.867188 12.5 -10.957031 12.84375 -11.125 C 13.257812 -11.34375 13.566406 -11.671875 13.765625 -12.109375 C 14.046875 -12.734375 14.097656 -13.394531 13.921875 -14.09375 C 13.734375 -14.84375 13.320312 -15.335938 12.6875 -15.578125 L 12.390625 -15.75 L 10.40625 -15.78125 L 9.078125 -15.78125 L 9.078125 -20.328125 C 10.097656 -20.328125 10.921875 -20.328125 11.546875 -20.328125 C 12.179688 -20.328125 12.679688 -20.328125 13.046875 -20.328125 C 13.410156 -20.328125 13.671875 -20.320312 13.828125 -20.3125 C 13.984375 -20.300781 14.09375 -20.296875 14.15625 -20.296875 C 15.863281 -20.148438 17.226562 -19.660156 18.25 -18.828125 C 19.269531 -18.003906 19.941406 -16.738281 20.265625 -15.03125 C 20.523438 -13.382812 20.335938 -12.007812 19.703125 -10.90625 C 19.078125 -9.8125 18.070312 -9.148438 16.6875 -8.921875 L 16.265625 -8.90625 L 16.65625 -8.8125 C 17.976562 -8.601562 18.878906 -7.953125 19.359375 -6.859375 C 19.503906 -6.578125 19.617188 -6.164062 19.703125 -5.625 C 19.796875 -5.082031 19.882812 -4.390625 19.96875 -3.546875 C 20.207031 -0.421875 20.328125 1.453125 20.328125 2.078125 L 20.328125 2.28125 L 13.953125 2.28125 L 13.890625 2.015625 C 13.867188 1.890625 13.851562 1.679688 13.84375 1.390625 C 13.832031 1.109375 13.804688 0.742188 13.765625 0.296875 C 13.585938 -3.003906 13.347656 -4.976562 13.046875 -5.625 C 12.941406 -5.820312 12.601562 -5.984375 12.03125 -6.109375 C 11.800781 -6.140625 11.128906 -6.175781 10.015625 -6.21875 L 8.421875 -6.21875 L 8.421875 2.28125 L 2.3125 2.28125 L 2.3125 -8.65625 C 2.332031 -11.300781 2.335938 -13.40625 2.328125 -14.96875 C 2.316406 -16.53125 2.3125 -17.582031 2.3125 -18.125 C 2.269531 -19.144531 2.226562 -19.695312 2.1875 -19.78125 C 2.09375 -20.019531 1.9375 -20.191406 1.71875 -20.296875 C 1.832031 -20.296875 1.972656 -20.296875 2.140625 -20.296875 C 2.296875 -20.296875 2.476562 -20.300781 2.6875 -20.3125 C 2.894531 -20.320312 3.140625 -20.328125 3.421875 -20.328125 L 8.421875 -20.328125 Z M 8.421875 -10.796875 "/></g></g></g><g fill="#000000" fill-opacity="1"><g transform="translate(312.154883, 48.615903)"><g><path d="M 1.234375 -8.5625 L 13.140625 -8.5625 L 13.140625 -4.59375 L 1.234375 -4.59375 Z M 1.234375 -8.5625 "/></g></g></g><g fill="#000000" fill-opacity="1"><g transform="translate(326.310332, 48.615903)"><g><path d="M 1.75 -20.265625 C 1.726562 -20.285156 1.800781 -20.296875 1.96875 -20.296875 C 2.132812 -20.296875 2.539062 -20.304688 3.1875 -20.328125 L 18.0625 -20.328125 L 18.0625 -15.65625 L 8.390625 -15.65625 L 8.390625 -4.421875 L 8.359375 2.25 L 5.328125 2.28125 L 2.3125 2.28125 L 2.3125 -8.625 C 2.3125 -15.863281 2.289062 -19.5625 2.25 -19.71875 C 2.09375 -20 1.925781 -20.179688 1.75 -20.265625 Z M 9.234375 -11.0625 L 17.40625 -11.0625 L 17.40625 -6.4375 L 9.234375 -6.4375 Z M 9.234375 -11.0625 "/></g></g></g><g fill="#000000" fill-opacity="1"><g transform="translate(345.60502, 48.615903)"><g><path d="M 6.078125 -20.234375 C 6.015625 -20.253906 6.03125 -20.273438 6.125 -20.296875 C 6.269531 -20.316406 6.695312 -20.328125 7.40625 -20.328125 C 8.125 -20.328125 9.070312 -20.328125 10.25 -20.328125 L 14.765625 -20.328125 L 14.96875 -19.71875 C 15.070312 -19.300781 15.253906 -18.671875 15.515625 -17.828125 C 15.671875 -17.304688 15.796875 -16.863281 15.890625 -16.5 C 15.992188 -16.144531 16.066406 -15.863281 16.109375 -15.65625 C 16.128906 -15.539062 16.28125 -15.019531 16.5625 -14.09375 C 16.84375 -13.195312 17.054688 -12.476562 17.203125 -11.9375 C 17.421875 -11.195312 17.628906 -10.472656 17.828125 -9.765625 C 18.023438 -9.066406 18.222656 -8.394531 18.421875 -7.75 C 18.460938 -7.613281 18.515625 -7.441406 18.578125 -7.234375 C 18.640625 -7.023438 18.71875 -6.78125 18.8125 -6.5 C 18.894531 -6.21875 18.957031 -5.988281 19 -5.8125 C 19.039062 -5.644531 19.070312 -5.53125 19.09375 -5.46875 C 19.113281 -5.425781 19.132812 -5.332031 19.15625 -5.1875 C 19.1875 -5.050781 19.242188 -4.875 19.328125 -4.65625 C 19.492188 -4.195312 19.582031 -3.878906 19.59375 -3.703125 C 19.613281 -3.640625 19.644531 -3.523438 19.6875 -3.359375 C 19.726562 -3.203125 19.773438 -3.035156 19.828125 -2.859375 C 19.878906 -2.691406 19.925781 -2.535156 19.96875 -2.390625 C 20.019531 -2.253906 20.046875 -2.171875 20.046875 -2.140625 C 20.066406 -2.117188 20.140625 -1.882812 20.265625 -1.4375 C 20.285156 -1.363281 20.328125 -1.203125 20.390625 -0.953125 C 20.460938 -0.703125 20.539062 -0.445312 20.625 -0.1875 C 20.707031 0.0625 20.773438 0.289062 20.828125 0.5 C 20.890625 0.707031 20.929688 0.820312 20.953125 0.84375 C 20.953125 0.925781 20.984375 1.066406 21.046875 1.265625 C 21.109375 1.460938 21.15625 1.59375 21.1875 1.65625 C 21.207031 1.769531 21.226562 1.875 21.25 1.96875 C 21.269531 2.0625 21.289062 2.132812 21.3125 2.1875 C 21.332031 2.207031 21.300781 2.226562 21.21875 2.25 C 21.144531 2.269531 20.867188 2.28125 20.390625 2.28125 C 19.921875 2.28125 19.296875 2.28125 18.515625 2.28125 L 15.421875 2.28125 L 15.296875 1.921875 C 15.253906 1.828125 15.210938 1.703125 15.171875 1.546875 C 15.140625 1.398438 15.101562 1.222656 15.0625 1.015625 C 15.0625 0.984375 15.039062 0.894531 15 0.75 C 14.957031 0.613281 14.90625 0.429688 14.84375 0.203125 C 14.769531 -0.015625 14.707031 -0.21875 14.65625 -0.40625 C 14.601562 -0.59375 14.554688 -0.769531 14.515625 -0.9375 L 14.15625 -2.375 L 7.359375 -2.375 L 7.3125 -2.171875 C 7.125 -1.523438 6.953125 -0.910156 6.796875 -0.328125 C 6.648438 0.253906 6.519531 0.796875 6.40625 1.296875 L 6.125 2.28125 L 3.0625 2.28125 C 2.257812 2.257812 1.625 2.242188 1.15625 2.234375 C 0.6875 2.222656 0.453125 2.207031 0.453125 2.1875 C 1.035156 0.363281 1.585938 -1.460938 2.109375 -3.296875 C 2.628906 -5.128906 3.140625 -6.976562 3.640625 -8.84375 C 3.640625 -8.882812 3.675781 -9.035156 3.75 -9.296875 C 3.832031 -9.566406 3.894531 -9.785156 3.9375 -9.953125 C 4.039062 -10.253906 4.128906 -10.550781 4.203125 -10.84375 C 4.285156 -11.144531 4.367188 -11.457031 4.453125 -11.78125 C 4.523438 -12.0625 4.609375 -12.375 4.703125 -12.71875 C 4.796875 -13.0625 4.898438 -13.429688 5.015625 -13.828125 C 5.035156 -13.890625 5.066406 -14.003906 5.109375 -14.171875 C 5.148438 -14.347656 5.195312 -14.53125 5.25 -14.71875 C 5.300781 -14.90625 5.347656 -15.082031 5.390625 -15.25 C 5.441406 -15.425781 5.46875 -15.535156 5.46875 -15.578125 C 5.507812 -15.671875 5.550781 -15.785156 5.59375 -15.921875 C 5.632812 -16.066406 5.679688 -16.238281 5.734375 -16.4375 C 5.835938 -16.84375 5.898438 -17.078125 5.921875 -17.140625 C 5.960938 -17.234375 6.003906 -17.398438 6.046875 -17.640625 C 6.097656 -17.878906 6.175781 -18.179688 6.28125 -18.546875 C 6.445312 -19.023438 6.53125 -19.328125 6.53125 -19.453125 C 6.53125 -19.804688 6.378906 -20.066406 6.078125 -20.234375 Z M 11.15625 -13.765625 C 10.914062 -14.734375 10.773438 -15.21875 10.734375 -15.21875 C 10.691406 -15.09375 10.601562 -14.707031 10.46875 -14.0625 C 10.425781 -13.90625 10.375 -13.691406 10.3125 -13.421875 C 10.25 -13.148438 10.171875 -12.816406 10.078125 -12.421875 C 10.035156 -12.296875 9.960938 -12.007812 9.859375 -11.5625 C 9.753906 -11.125 9.644531 -10.664062 9.53125 -10.1875 C 9.375 -9.625 9.210938 -9.015625 9.046875 -8.359375 C 8.847656 -7.554688 8.75 -7.125 8.75 -7.0625 C 8.75 -7.019531 9.441406 -7 10.828125 -7 L 12.890625 -7 L 12.84375 -7.3125 C 12.675781 -7.945312 12.453125 -8.800781 12.171875 -9.875 C 11.890625 -10.945312 11.550781 -12.242188 11.15625 -13.765625 Z M 11.15625 -13.765625 "/></g></g></g><g fill="#000000" fill-opacity="1"><g transform="translate(367.394185, 48.615903)"><g><path d="M 8.84375 -20.5 C 8.914062 -20.519531 9.070312 -20.535156 9.3125 -20.546875 C 9.5625 -20.554688 9.875 -20.550781 10.25 -20.53125 C 10.894531 -20.507812 11.503906 -20.46875 12.078125 -20.40625 C 12.660156 -20.351562 13.222656 -20.25 13.765625 -20.09375 C 14.304688 -19.945312 14.835938 -19.738281 15.359375 -19.46875 C 15.878906 -19.195312 16.378906 -18.835938 16.859375 -18.390625 C 17.640625 -17.671875 18.203125 -16.8125 18.546875 -15.8125 C 18.585938 -15.707031 18.632812 -15.570312 18.6875 -15.40625 C 18.738281 -15.238281 18.78125 -15.046875 18.8125 -14.828125 C 18.851562 -14.597656 18.890625 -14.410156 18.921875 -14.265625 C 18.953125 -14.128906 18.96875 -14.035156 18.96875 -13.984375 L 18.96875 -13.828125 L 13.078125 -13.828125 L 13.015625 -14.15625 C 12.953125 -14.519531 12.8125 -14.832031 12.59375 -15.09375 C 12.375 -15.351562 12.117188 -15.570312 11.828125 -15.75 C 11.535156 -15.925781 11.21875 -16.054688 10.875 -16.140625 C 10.539062 -16.222656 10.203125 -16.265625 9.859375 -16.265625 C 8.617188 -16.265625 7.976562 -15.671875 7.9375 -14.484375 C 7.9375 -14.023438 8.175781 -13.625 8.65625 -13.28125 C 9.132812 -12.945312 10 -12.597656 11.25 -12.234375 C 12.226562 -11.910156 13.0625 -11.628906 13.75 -11.390625 C 14.445312 -11.148438 15.023438 -10.921875 15.484375 -10.703125 C 15.921875 -10.484375 16.3125 -10.257812 16.65625 -10.03125 C 17 -9.800781 17.300781 -9.5625 17.5625 -9.3125 C 18.21875 -8.675781 18.71875 -7.925781 19.0625 -7.0625 C 19.414062 -6.195312 19.578125 -5.304688 19.546875 -4.390625 C 19.460938 -3.085938 19.128906 -1.992188 18.546875 -1.109375 C 17.960938 -0.234375 17.21875 0.472656 16.3125 1.015625 C 15.414062 1.554688 14.410156 1.941406 13.296875 2.171875 C 12.191406 2.410156 11.066406 2.539062 9.921875 2.5625 C 8.898438 2.5625 7.9375 2.445312 7.03125 2.21875 C 6.132812 2 5.316406 1.660156 4.578125 1.203125 C 3.847656 0.742188 3.21875 0.144531 2.6875 -0.59375 C 2.15625 -1.34375 1.75 -2.238281 1.46875 -3.28125 C 1.269531 -3.9375 1.171875 -4.425781 1.171875 -4.75 C 1.171875 -4.832031 2.171875 -4.851562 4.171875 -4.8125 L 7.21875 -4.8125 L 7.25 -4.390625 C 7.363281 -3.804688 7.613281 -3.289062 8 -2.84375 C 8.394531 -2.394531 8.851562 -2.085938 9.375 -1.921875 C 9.519531 -1.878906 9.679688 -1.847656 9.859375 -1.828125 C 10.035156 -1.804688 10.238281 -1.796875 10.46875 -1.796875 C 10.96875 -1.796875 11.445312 -1.882812 11.90625 -2.0625 C 12.363281 -2.25 12.691406 -2.601562 12.890625 -3.125 C 13.097656 -3.539062 13.117188 -4.019531 12.953125 -4.5625 C 12.796875 -5.144531 12.554688 -5.554688 12.234375 -5.796875 C 11.859375 -6.097656 10.828125 -6.476562 9.140625 -6.9375 C 8.316406 -7.164062 7.585938 -7.390625 6.953125 -7.609375 C 6.328125 -7.828125 5.785156 -8.046875 5.328125 -8.265625 C 4.003906 -8.910156 3.066406 -9.695312 2.515625 -10.625 C 1.960938 -11.5625 1.71875 -12.789062 1.78125 -14.3125 C 1.8125 -15.269531 2 -16.101562 2.34375 -16.8125 C 2.6875 -17.53125 3.140625 -18.140625 3.703125 -18.640625 C 4.273438 -19.140625 4.941406 -19.539062 5.703125 -19.84375 C 6.472656 -20.144531 7.296875 -20.34375 8.171875 -20.4375 C 8.296875 -20.4375 8.425781 -20.445312 8.5625 -20.46875 C 8.707031 -20.488281 8.800781 -20.5 8.84375 -20.5 Z M 8.84375 -20.5 "/></g></g></g><g fill="#000000" fill-opacity="1"><g transform="translate(388.04131, 48.615903)"><g><path d="M 0.59375 -20.328125 L 18.3125 -20.328125 L 18.3125 -15.71875 L 0.59375 -15.71875 Z M 6.1875 -14.671875 L 6.046875 -14.828125 L 12.53125 -14.828125 L 12.53125 2.28125 L 6.46875 2.28125 L 6.46875 -5.890625 C 6.46875 -8.691406 6.46875 -10.800781 6.46875 -12.21875 C 6.46875 -13.632812 6.457031 -14.363281 6.4375 -14.40625 C 6.414062 -14.476562 6.332031 -14.566406 6.1875 -14.671875 Z M 6.1875 -14.671875 "/></g></g></g><g fill="#000000" fill-opacity="1"><g transform="translate(406.649568, 50.257483)"><g><path d="M 0.921875 -1.78125 L 4.046875 -1.78125 L 4.046875 1.28125 L 0.921875 1.28125 Z M 0.921875 -1.78125 "/></g></g></g><g fill="#000000" fill-opacity="1"><g transform="translate(411.734752, 50.257483)"><g><path d="M 4.828125 -8.53125 C 4.910156 -8.539062 4.984375 -8.546875 5.046875 -8.546875 C 5.117188 -8.546875 5.179688 -8.550781 5.234375 -8.5625 L 5.390625 -8.5625 L 5.390625 -7.359375 L 5.375 -6.1875 L 5.21875 -6.171875 C 4.96875 -6.097656 4.765625 -5.976562 4.609375 -5.8125 C 4.460938 -5.644531 4.347656 -5.457031 4.265625 -5.25 C 4.179688 -5.039062 4.125 -4.816406 4.09375 -4.578125 C 4.0625 -4.335938 4.039062 -4.101562 4.03125 -3.875 C 4.007812 -2.851562 4.097656 -2.109375 4.296875 -1.640625 C 4.367188 -1.441406 4.5 -1.28125 4.6875 -1.15625 C 4.875 -1.03125 5.082031 -0.96875 5.3125 -0.96875 L 5.390625 -0.96875 L 5.390625 1.359375 L 5.21875 1.359375 C 4.925781 1.359375 4.585938 1.304688 4.203125 1.203125 C 3.816406 1.109375 3.472656 1 3.171875 0.875 C 2.597656 0.613281 2.140625 0.296875 1.796875 -0.078125 C 1.453125 -0.453125 1.1875 -0.941406 1 -1.546875 C 0.769531 -2.222656 0.664062 -2.984375 0.6875 -3.828125 C 0.71875 -4.460938 0.832031 -5.046875 1.03125 -5.578125 C 1.238281 -6.109375 1.519531 -6.578125 1.875 -6.984375 C 2.226562 -7.390625 2.65625 -7.722656 3.15625 -7.984375 C 3.65625 -8.242188 4.210938 -8.425781 4.828125 -8.53125 Z M 5.78125 -8.5625 L 6.09375 -8.546875 C 6.625 -8.515625 7.109375 -8.398438 7.546875 -8.203125 C 7.984375 -8.015625 8.363281 -7.757812 8.6875 -7.4375 C 9.019531 -7.113281 9.289062 -6.734375 9.5 -6.296875 C 9.71875 -5.867188 9.867188 -5.40625 9.953125 -4.90625 L 9.953125 -4.796875 L 6.734375 -4.796875 L 6.65625 -5.125 C 6.601562 -5.476562 6.519531 -5.734375 6.40625 -5.890625 C 6.300781 -6.054688 6.144531 -6.148438 5.9375 -6.171875 L 5.78125 -6.1875 Z M 6.625 -2.109375 L 6.734375 -2.375 L 9.90625 -2.375 L 9.890625 -2.21875 C 9.835938 -1.78125 9.703125 -1.347656 9.484375 -0.921875 C 9.273438 -0.492188 9.019531 -0.117188 8.71875 0.203125 C 8.03125 0.890625 7.132812 1.269531 6.03125 1.34375 L 5.828125 1.34375 L 5.828125 -0.953125 L 5.953125 -1.03125 C 6.222656 -1.1875 6.445312 -1.546875 6.625 -2.109375 Z M 6.625 -2.109375 "/></g></g></g><g fill="#000000" fill-opacity="1"><g transform="translate(422.108529, 50.257483)"><g><path d="M 5.75 -8.578125 L 6.046875 -8.5625 C 6.722656 -8.53125 7.332031 -8.390625 7.875 -8.140625 C 8.414062 -7.890625 8.875 -7.554688 9.25 -7.140625 C 9.625 -6.722656 9.914062 -6.234375 10.125 -5.671875 C 10.332031 -5.117188 10.457031 -4.515625 10.5 -3.859375 C 10.539062 -2.804688 10.351562 -1.851562 9.9375 -1 C 9.34375 0.1875 8.375 0.929688 7.03125 1.234375 C 6.625 1.347656 6.253906 1.40625 5.921875 1.40625 L 5.78125 1.40625 L 5.765625 0.90625 C 5.773438 0.71875 5.78125 0.53125 5.78125 0.34375 C 5.78125 0.15625 5.78125 -0.0390625 5.78125 -0.25 C 5.78125 -0.6875 5.789062 -0.90625 5.8125 -0.90625 C 6 -0.90625 6.207031 -0.988281 6.4375 -1.15625 C 6.875 -1.40625 7.148438 -1.945312 7.265625 -2.78125 C 7.285156 -2.875 7.296875 -2.988281 7.296875 -3.125 C 7.304688 -3.269531 7.304688 -3.4375 7.296875 -3.625 C 7.273438 -3.832031 7.257812 -4.003906 7.25 -4.140625 C 7.238281 -4.273438 7.222656 -4.382812 7.203125 -4.46875 C 7.140625 -4.894531 7.015625 -5.257812 6.828125 -5.5625 C 6.640625 -5.875 6.3125 -6.070312 5.84375 -6.15625 L 5.75 -6.171875 Z M 4.71875 -8.546875 C 4.769531 -8.554688 4.832031 -8.5625 4.90625 -8.5625 C 4.976562 -8.5625 5.0625 -8.566406 5.15625 -8.578125 L 5.375 -8.578125 L 5.375 -7.546875 C 5.375 -7.210938 5.375 -6.941406 5.375 -6.734375 C 5.375 -6.535156 5.367188 -6.398438 5.359375 -6.328125 L 5.359375 -6.171875 L 5.171875 -6.125 C 4.640625 -6.03125 4.273438 -5.691406 4.078125 -5.109375 C 3.992188 -4.847656 3.9375 -4.550781 3.90625 -4.21875 C 3.882812 -3.882812 3.890625 -3.519531 3.921875 -3.125 C 3.941406 -2.90625 3.96875 -2.6875 4 -2.46875 C 4.03125 -2.25 4.09375 -2.039062 4.1875 -1.84375 C 4.28125 -1.644531 4.398438 -1.472656 4.546875 -1.328125 C 4.691406 -1.191406 4.882812 -1.085938 5.125 -1.015625 L 5.34375 -0.96875 L 5.359375 0.203125 L 5.359375 1.375 L 5.03125 1.375 C 4.125 1.375 3.304688 1.125 2.578125 0.625 C 1.523438 -0.0820312 0.910156 -1.242188 0.734375 -2.859375 C 0.566406 -4.171875 0.769531 -5.328125 1.34375 -6.328125 C 1.675781 -6.929688 2.140625 -7.429688 2.734375 -7.828125 C 3.335938 -8.222656 4 -8.460938 4.71875 -8.546875 Z M 4.71875 -8.546875 "/></g></g></g><g fill="#000000" fill-opacity="1"><g transform="translate(433.295928, 50.257483)"><g><path d="M 6.375 -8.5625 C 6.625 -8.59375 6.925781 -8.601562 7.28125 -8.59375 C 7.632812 -8.582031 7.921875 -8.550781 8.140625 -8.5 C 8.691406 -8.34375 9.144531 -8.015625 9.5 -7.515625 C 9.539062 -7.421875 9.566406 -7.375 9.578125 -7.375 C 9.585938 -7.375 9.660156 -7.441406 9.796875 -7.578125 C 10.347656 -8.109375 11.019531 -8.4375 11.8125 -8.5625 C 12.351562 -8.644531 12.875 -8.613281 13.375 -8.46875 C 13.875 -8.332031 14.273438 -8.113281 14.578125 -7.8125 C 15.003906 -7.382812 15.316406 -6.738281 15.515625 -5.875 C 15.535156 -5.71875 15.550781 -4.492188 15.5625 -2.203125 L 15.578125 1.28125 L 12.171875 1.28125 L 12.171875 -5.3125 L 12.09375 -5.515625 C 12 -5.796875 11.84375 -5.957031 11.625 -6 C 11.226562 -6.125 10.894531 -6.117188 10.625 -5.984375 C 10.40625 -5.867188 10.210938 -5.578125 10.046875 -5.109375 L 9.984375 -4.90625 L 9.984375 -1.828125 L 9.96875 1.28125 L 6.546875 1.28125 L 6.546875 -5.421875 L 6.5 -5.59375 C 6.382812 -5.882812 6.128906 -6.054688 5.734375 -6.109375 C 5.398438 -6.128906 5.128906 -6.035156 4.921875 -5.828125 C 4.734375 -5.640625 4.601562 -5.382812 4.53125 -5.0625 C 4.519531 -5.007812 4.503906 -4.941406 4.484375 -4.859375 C 4.472656 -4.785156 4.46875 -4.675781 4.46875 -4.53125 C 4.457031 -4.382812 4.453125 -4.082031 4.453125 -3.625 C 4.453125 -3.175781 4.453125 -2.566406 4.453125 -1.796875 L 4.453125 1.28125 L 1.078125 1.28125 L 1.078125 -4.46875 C 1.078125 -5.46875 1.078125 -6.238281 1.078125 -6.78125 C 1.078125 -7.332031 1.070312 -7.691406 1.0625 -7.859375 C 1.039062 -8.191406 1 -8.375 0.9375 -8.40625 C 0.925781 -8.414062 0.914062 -8.421875 0.90625 -8.421875 C 0.863281 -8.441406 0.878906 -8.460938 0.953125 -8.484375 L 4.453125 -8.484375 L 4.453125 -7.328125 L 4.578125 -7.5 C 4.984375 -8.09375 5.582031 -8.445312 6.375 -8.5625 Z M 6.375 -8.5625 "/></g></g></g><g fill="#000000" fill-opacity="1"><g transform="translate(231.172241, 41.2049)"><g><path d="M 0.796875 -1.5625 L 3.546875 -1.5625 L 3.546875 1.125 L 0.796875 1.125 Z M 0.796875 -1.5625 "/></g></g></g></svg>